<?xml version="1.0" encoding="UTF-8"?>
<svg width="63px" height="249px" viewBox="0 0 63 249" version="1.1" xmlns="http://www.w3.org/2000/svg" xmlns:xlink="http://www.w3.org/1999/xlink">
    <title>hour-hand-orange-v2</title>
    <g id="hour-hand-orange-v2" stroke="none" stroke-width="1" fill="none" fill-rule="evenodd">
        <path d="M31.5,41 C34.5375661,41 37,43.4624339 37,46.5 L37.0007053,107.881991 C43.9708516,110.18794 49,116.75666 49,124.5 C49,134.164983 41.1649831,142 31.5,142 C21.8350169,142 14,134.164983 14,124.5 C14,116.756288 19.0296304,110.18731 26.0002967,107.881659 L26,46.5 C26,43.4624339 28.4624339,41 31.5,41 Z M31.5,115 C26.2532949,115 22,119.253295 22,124.5 C22,129.746705 26.2532949,134 31.5,134 C36.7467051,134 41,129.746705 41,124.5 C41,119.253295 36.7467051,115 31.5,115 Z" id="Combined-Shape" fill="#FF9900"></path>
    </g>
</svg>