<?xml version="1.0" encoding="UTF-8"?>
<svg width="50px" height="500px" viewBox="0 0 50 500" version="1.1" xmlns="http://www.w3.org/2000/svg" xmlns:xlink="http://www.w3.org/1999/xlink">
    <title>min-hand-big-white</title>
    <g id="Page-1" stroke="none" stroke-width="1" fill="none" fill-rule="evenodd">
        <g id="clock-face-big-light" transform="translate(-225, 0)" fill="#FFFFFF">
            <path d="M250,20 C254.970563,20 259,24.0294373 259,29 L259,209 C259,212.533287 256.963938,215.591026 254.001093,217.063937 L254.000962,239.750256 C258.097811,241.350643 261,245.3364 261,250 C261,256.075132 256.075132,261 250,261 C243.924868,261 239,256.075132 239,250 C239,245.336021 241.902661,241.349994 246.000038,239.749866 L245.999908,217.064435 C243.036521,215.591715 241,212.533685 241,209 L241,29 C241,24.0294373 245.029437,20 250,20 Z M250,244 C246.686292,244 244,246.686292 244,250 C244,253.313708 246.686292,256 250,256 C253.313708,256 256,253.313708 256,250 C256,246.686292 253.313708,244 250,244 Z" id="Shape"></path>
        </g>
    </g>
</svg>