<?xml version="1.0" encoding="UTF-8"?>
<svg width="63px" height="249px" viewBox="0 0 63 249" version="1.1" xmlns="http://www.w3.org/2000/svg" xmlns:xlink="http://www.w3.org/1999/xlink">
    <title>min-hand-orange-v2</title>
    <g id="min-hand-orange-v2" stroke="none" stroke-width="1" fill="none" fill-rule="evenodd">
        <path d="M31.5,9 C33.9852814,9 36,11.0147186 36,13.5 L36.0003204,108.621188 C42.9256709,110.580081 48,116.947454 48,124.5 C48,133.612698 40.6126984,141 31.5,141 C22.3873016,141 15,133.612698 15,124.5 C15,116.94709 20.0748174,110.579468 27.0006793,108.620905 L27,13.5 C27,11.0147186 29.0147186,9 31.5,9 Z M31.5,114 C25.7010101,114 21,118.70101 21,124.5 C21,130.29899 25.7010101,135 31.5,135 C37.2989899,135 42,130.29899 42,124.5 C42,118.70101 37.2989899,114 31.5,114 Z M31.5,120 C33.9852814,120 36,122.014719 36,124.5 C36,126.985281 33.9852814,129 31.5,129 C29.0147186,129 27,126.985281 27,124.5 C27,122.014719 29.0147186,120 31.5,120 Z" id="Combined-Shape" fill="#FF9900"></path>
    </g>
</svg>