<?xml version="1.0" encoding="UTF-8"?>
<svg width="50px" height="500px" viewBox="0 0 50 500" version="1.1" xmlns="http://www.w3.org/2000/svg" xmlns:xlink="http://www.w3.org/1999/xlink">
    <title>sec-hand-big-orange</title>
    <g id="Page-1" stroke="none" stroke-width="1" fill="none" fill-rule="evenodd">
        <g id="clock-face-big-light" transform="translate(-225, 0)" fill="#FF9900">
            <path d="M250,0 C251.104569,0 252,0.8954305 252,2 L252.000358,242.252127 C255.450631,243.140337 258,246.27245 258,250 C258,253.72755 255.450631,256.859663 252.000358,257.747873 L252,288 C252,289.104569 251.104569,290 250,290 C248.895431,290 248,289.104569 248,288 L248.000644,257.748131 C244.549863,256.860269 242,253.727911 242,250 C242,246.272089 244.549863,243.139731 248.000644,242.251869 L248,2 C248,0.8954305 248.895431,0 250,0 Z M250,246 C247.790861,246 246,247.790861 246,250 C246,252.209139 247.790861,254 250,254 C252.209139,254 254,252.209139 254,250 C254,247.790861 252.209139,246 250,246 Z" id="Shape"></path>
        </g>
    </g>
</svg>