<?xml version="1.0" encoding="UTF-8"?>
<svg width="500px" height="500px" viewBox="0 0 500 500" version="1.1" xmlns="http://www.w3.org/2000/svg" xmlns:xlink="http://www.w3.org/1999/xlink">
    <title>clock-face-big-numbers-light</title>
    <g id="clock-face-big-numbers-light" stroke="none" stroke-width="1" fill="none" fill-rule="evenodd">
        <path d="M276.132116,1.36952616 C276.681375,1.42725563 277.079839,1.91931724 277.022109,2.46857652 L275.558711,16.3918831 C275.500981,16.9411423 275.00892,17.339606 274.45966,17.2818765 C273.910401,17.224147 273.511937,16.7320854 273.569667,16.1828261 L275.033065,2.25951959 C275.090795,1.71026031 275.582857,1.31179668 276.132116,1.36952616 Z M301.977923,5.46309982 C302.518139,5.57792627 302.862985,6.10894311 302.748159,6.64915911 L299.837395,20.3432255 C299.722568,20.8834415 299.191552,21.2282879 298.651336,21.1134614 C298.11112,20.998635 297.766273,20.4676181 297.8811,19.9274021 L300.791863,6.23333573 C300.90669,5.69311972 301.437707,5.34827336 301.977923,5.46309982 Z M327.254249,12.2358709 C327.779503,12.4065363 328.066953,12.9706904 327.896288,13.4959444 L323.57005,26.8107357 C323.399385,27.3359897 322.835231,27.6234406 322.309977,27.4527752 C321.784723,27.2821098 321.497272,26.7179557 321.667937,26.1927017 L325.994175,12.8779104 C326.16484,12.3526564 326.728995,12.0652056 327.254249,12.2358709 Z M351.684161,21.6136356 C352.188698,21.83827 352.415604,22.4293805 352.19097,22.9339177 L346.496657,35.7235541 C346.272022,36.2280913 345.680912,36.4549974 345.176374,36.2303629 C344.671837,36.0057285 344.444931,35.414618 344.669566,34.9100808 L350.363879,22.1204444 C350.588513,21.6159072 351.179624,21.3890011 351.684161,21.6136356 Z M396.946313,47.7457514 C397.393121,48.0703762 397.49217,48.6957459 397.167545,49.1425537 L388.938551,60.4687916 C388.613926,60.9155993 387.988557,61.0146481 387.541749,60.6900233 C387.094941,60.3653985 386.995892,59.7400288 387.320517,59.2932211 L395.549511,47.9669831 C395.874136,47.5201754 396.499505,47.4211266 396.946313,47.7457514 Z M417.282652,64.2137936 C417.693079,64.5833443 417.726216,65.2156415 417.356666,65.6260691 L407.988837,76.0300966 C407.619287,76.4405242 406.986989,76.4736615 406.576562,76.1041108 C406.166134,75.7345602 406.132997,75.102263 406.502548,74.6918354 L415.870376,64.2878078 C416.239927,63.8773803 416.872224,63.844243 417.282652,64.2137936 Z M435.786206,82.7173484 C436.155757,83.127776 436.12262,83.7600732 435.712192,84.1296238 L425.308165,93.4974523 C424.897737,93.867003 424.26544,93.8338657 423.895889,93.4234381 C423.526339,93.0130106 423.559476,92.3807133 423.969903,92.0111627 L434.373931,82.6433342 C434.784358,82.2737836 435.416656,82.3069209 435.786206,82.7173484 Z M452.254249,103.053687 C452.578873,103.500495 452.479825,104.125864 452.033017,104.450489 L440.706779,112.679483 C440.259971,113.004108 439.634602,112.905059 439.309977,112.458251 C438.985352,112.011443 439.084401,111.386074 439.531208,111.061449 L450.857446,102.832455 C451.304254,102.50783 451.929624,102.606879 452.254249,103.053687 Z M478.386364,148.315839 C478.610999,148.820376 478.384093,149.411487 477.879556,149.636121 L465.089919,155.330434 C464.585382,155.555069 463.994272,155.328163 463.769637,154.823626 C463.545003,154.319088 463.771909,153.727978 464.276446,153.503343 L477.066082,147.80903 C477.57062,147.584396 478.16173,147.811302 478.386364,148.315839 Z M487.764129,172.745751 C487.934794,173.271005 487.647344,173.83516 487.12209,174.005825 L473.807298,178.332063 C473.282044,178.502728 472.71789,178.215277 472.547225,177.690023 C472.376559,177.164769 472.66401,176.600615 473.189264,176.42995 L486.504056,172.103712 C487.02931,171.933047 487.593464,172.220497 487.764129,172.745751 Z M494.5369,198.022077 C494.651727,198.562293 494.30688,199.09331 493.766664,199.208137 L480.072598,202.1189 C479.532382,202.233727 479.001365,201.88888 478.886539,201.348664 C478.771712,200.808448 479.116558,200.277432 479.656774,200.162605 L493.350841,197.251841 C493.891057,197.137015 494.422074,197.481861 494.5369,198.022077 Z M498.630474,223.867884 C498.688203,224.417143 498.28974,224.909205 497.74048,224.966935 L483.817174,226.430333 C483.267915,226.488063 482.775853,226.089599 482.718124,225.54034 C482.660394,224.99108 483.058858,224.499019 483.608117,224.441289 L497.531423,222.977891 C498.080683,222.920161 498.572744,223.318625 498.630474,223.867884 Z M498.630474,276.132116 C498.572744,276.681375 498.080683,277.079839 497.531423,277.022109 L483.608117,275.558711 C483.058858,275.500981 482.660394,275.00892 482.718124,274.45966 C482.775853,273.910401 483.267915,273.511937 483.817174,273.569667 L497.74048,275.033065 C498.28974,275.090795 498.688203,275.582857 498.630474,276.132116 Z M494.5369,301.977923 C494.422074,302.518139 493.891057,302.862985 493.350841,302.748159 L479.656774,299.837395 C479.116558,299.722568 478.771712,299.191552 478.886539,298.651336 C479.001365,298.11112 479.532382,297.766273 480.072598,297.8811 L493.766664,300.791863 C494.30688,300.90669 494.651727,301.437707 494.5369,301.977923 Z M487.764129,327.254249 C487.593464,327.779503 487.02931,328.066953 486.504056,327.896288 L473.189264,323.57005 C472.66401,323.399385 472.376559,322.835231 472.547225,322.309977 C472.71789,321.784723 473.282044,321.497272 473.807298,321.667937 L487.12209,325.994175 C487.647344,326.16484 487.934794,326.728995 487.764129,327.254249 Z M478.386364,351.684161 C478.16173,352.188698 477.57062,352.415604 477.066082,352.19097 L464.276446,346.496657 C463.771909,346.272022 463.545003,345.680912 463.769637,345.176374 C463.994272,344.671837 464.585382,344.444931 465.089919,344.669566 L477.879556,350.363879 C478.384093,350.588513 478.610999,351.179624 478.386364,351.684161 Z M452.254249,396.946313 C451.929624,397.393121 451.304254,397.49217 450.857446,397.167545 L439.531208,388.938551 C439.084401,388.613926 438.985352,387.988557 439.309977,387.541749 C439.634602,387.094941 440.259971,386.995892 440.706779,387.320517 L452.033017,395.549511 C452.479825,395.874136 452.578873,396.499505 452.254249,396.946313 Z M435.786206,417.282652 C435.416656,417.693079 434.784358,417.726216 434.373931,417.356666 L423.969903,407.988837 C423.559476,407.619287 423.526339,406.986989 423.895889,406.576562 C424.26544,406.166134 424.897737,406.132997 425.308165,406.502548 L435.712192,415.870376 C436.12262,416.239927 436.155757,416.872224 435.786206,417.282652 Z M417.282652,435.786206 C416.872224,436.155757 416.239927,436.12262 415.870376,435.712192 L406.502548,425.308165 C406.132997,424.897737 406.166134,424.26544 406.576562,423.895889 C406.986989,423.526339 407.619287,423.559476 407.988837,423.969903 L417.356666,434.373931 C417.726216,434.784358 417.693079,435.416656 417.282652,435.786206 Z M396.946313,452.254249 C396.499505,452.578873 395.874136,452.479825 395.549511,452.033017 L387.320517,440.706779 C386.995892,440.259971 387.094941,439.634602 387.541749,439.309977 C387.988557,438.985352 388.613926,439.084401 388.938551,439.531208 L397.167545,450.857446 C397.49217,451.304254 397.393121,451.929624 396.946313,452.254249 Z M351.684161,478.386364 C351.179624,478.610999 350.588513,478.384093 350.363879,477.879556 L344.669566,465.089919 C344.444931,464.585382 344.671837,463.994272 345.176374,463.769637 C345.680912,463.545003 346.272022,463.771909 346.496657,464.276446 L352.19097,477.066082 C352.415604,477.57062 352.188698,478.16173 351.684161,478.386364 Z M327.254249,487.764129 C326.728995,487.934794 326.16484,487.647344 325.994175,487.12209 L321.667937,473.807298 C321.497272,473.282044 321.784723,472.71789 322.309977,472.547225 C322.835231,472.376559 323.399385,472.66401 323.57005,473.189264 L327.896288,486.504056 C328.066953,487.02931 327.779503,487.593464 327.254249,487.764129 Z M301.977923,494.5369 C301.437707,494.651727 300.90669,494.30688 300.791863,493.766664 L297.8811,480.072598 C297.766273,479.532382 298.11112,479.001365 298.651336,478.886539 C299.191552,478.771712 299.722568,479.116558 299.837395,479.656774 L302.748159,493.350841 C302.862985,493.891057 302.518139,494.422074 301.977923,494.5369 Z M276.132116,498.630474 C275.582857,498.688203 275.090795,498.28974 275.033065,497.74048 L273.569667,483.817174 C273.511937,483.267915 273.910401,482.775853 274.45966,482.718124 C275.00892,482.660394 275.500981,483.058858 275.558711,483.608117 L277.022109,497.531423 C277.079839,498.080683 276.681375,498.572744 276.132116,498.630474 Z M223.867884,498.630474 C223.318625,498.572744 222.920161,498.080683 222.977891,497.531423 L224.441289,483.608117 C224.499019,483.058858 224.99108,482.660394 225.54034,482.718124 C226.089599,482.775853 226.488063,483.267915 226.430333,483.817174 L224.966935,497.74048 C224.909205,498.28974 224.417143,498.688203 223.867884,498.630474 Z M198.022077,494.5369 C197.481861,494.422074 197.137015,493.891057 197.251841,493.350841 L200.162605,479.656774 C200.277432,479.116558 200.808448,478.771712 201.348664,478.886539 C201.88888,479.001365 202.233727,479.532382 202.1189,480.072598 L199.208137,493.766664 C199.09331,494.30688 198.562293,494.651727 198.022077,494.5369 Z M172.745751,487.764129 C172.220497,487.593464 171.933047,487.02931 172.103712,486.504056 L176.42995,473.189264 C176.600615,472.66401 177.164769,472.376559 177.690023,472.547225 C178.215277,472.71789 178.502728,473.282044 178.332063,473.807298 L174.005825,487.12209 C173.83516,487.647344 173.271005,487.934794 172.745751,487.764129 Z M148.315839,478.386364 C147.811302,478.16173 147.584396,477.57062 147.80903,477.066082 L153.503343,464.276446 C153.727978,463.771909 154.319088,463.545003 154.823626,463.769637 C155.328163,463.994272 155.555069,464.585382 155.330434,465.089919 L149.636121,477.879556 C149.411487,478.384093 148.820376,478.610999 148.315839,478.386364 Z M103.053687,452.254249 C102.606879,451.929624 102.50783,451.304254 102.832455,450.857446 L111.061449,439.531208 C111.386074,439.084401 112.011443,438.985352 112.458251,439.309977 C112.905059,439.634602 113.004108,440.259971 112.679483,440.706779 L104.450489,452.033017 C104.125864,452.479825 103.500495,452.578873 103.053687,452.254249 Z M82.7173484,435.786206 C82.3069209,435.416656 82.2737836,434.784358 82.6433342,434.373931 L92.0111627,423.969903 C92.3807133,423.559476 93.0130106,423.526339 93.4234381,423.895889 C93.8338657,424.26544 93.867003,424.897737 93.4974523,425.308165 L84.1296238,435.712192 C83.7600732,436.12262 83.127776,436.155757 82.7173484,435.786206 Z M64.2137936,417.282652 C63.844243,416.872224 63.8773803,416.239927 64.2878078,415.870376 L74.6918354,406.502548 C75.102263,406.132997 75.7345602,406.166134 76.1041108,406.576562 C76.4736615,406.986989 76.4405242,407.619287 76.0300966,407.988837 L65.6260691,417.356666 C65.2156415,417.726216 64.5833443,417.693079 64.2137936,417.282652 Z M47.7457514,396.946313 C47.4211266,396.499505 47.5201754,395.874136 47.9669831,395.549511 L59.2932211,387.320517 C59.7400288,386.995892 60.3653985,387.094941 60.6900233,387.541749 C61.0146481,387.988557 60.9155993,388.613926 60.4687916,388.938551 L49.1425537,397.167545 C48.6957459,397.49217 48.0703762,397.393121 47.7457514,396.946313 Z M21.6136356,351.684161 C21.3890011,351.179624 21.6159072,350.588513 22.1204444,350.363879 L34.9100808,344.669566 C35.414618,344.444931 36.0057285,344.671837 36.2303629,345.176374 C36.4549974,345.680912 36.2280913,346.272022 35.7235541,346.496657 L22.9339177,352.19097 C22.4293805,352.415604 21.83827,352.188698 21.6136356,351.684161 Z M12.2358709,327.254249 C12.0652056,326.728995 12.3526564,326.16484 12.8779104,325.994175 L26.1927017,321.667937 C26.7179557,321.497272 27.2821098,321.784723 27.4527752,322.309977 C27.6234406,322.835231 27.3359897,323.399385 26.8107357,323.57005 L13.4959444,327.896288 C12.9706904,328.066953 12.4065363,327.779503 12.2358709,327.254249 Z M5.46309982,301.977923 C5.34827336,301.437707 5.69311972,300.90669 6.23333573,300.791863 L19.9274021,297.8811 C20.4676181,297.766273 20.998635,298.11112 21.1134614,298.651336 C21.2282879,299.191552 20.8834415,299.722568 20.3432255,299.837395 L6.64915911,302.748159 C6.10894311,302.862985 5.57792627,302.518139 5.46309982,301.977923 Z M1.36952616,276.132116 C1.31179668,275.582857 1.71026031,275.090795 2.25951959,275.033065 L16.1828261,273.569667 C16.7320854,273.511937 17.224147,273.910401 17.2818765,274.45966 C17.339606,275.00892 16.9411423,275.500981 16.3918831,275.558711 L2.46857652,277.022109 C1.91931724,277.079839 1.42725563,276.681375 1.36952616,276.132116 Z M1.36952616,223.867884 C1.42725563,223.318625 1.91931724,222.920161 2.46857652,222.977891 L16.3918831,224.441289 C16.9411423,224.499019 17.339606,224.99108 17.2818765,225.54034 C17.224147,226.089599 16.7320854,226.488063 16.1828261,226.430333 L2.25951959,224.966935 C1.71026031,224.909205 1.31179668,224.417143 1.36952616,223.867884 Z M5.46309982,198.022077 C5.57792627,197.481861 6.10894311,197.137015 6.64915911,197.251841 L20.3432255,200.162605 C20.8834415,200.277432 21.2282879,200.808448 21.1134614,201.348664 C20.998635,201.88888 20.4676181,202.233727 19.9274021,202.1189 L6.23333573,199.208137 C5.69311972,199.09331 5.34827336,198.562293 5.46309982,198.022077 Z M12.2358709,172.745751 C12.4065363,172.220497 12.9706904,171.933047 13.4959444,172.103712 L26.8107357,176.42995 C27.3359897,176.600615 27.6234406,177.164769 27.4527752,177.690023 C27.2821098,178.215277 26.7179557,178.502728 26.1927017,178.332063 L12.8779104,174.005825 C12.3526564,173.83516 12.0652056,173.271005 12.2358709,172.745751 Z M21.6136356,148.315839 C21.83827,147.811302 22.4293805,147.584396 22.9339177,147.80903 L35.7235541,153.503343 C36.2280913,153.727978 36.4549974,154.319088 36.2303629,154.823626 C36.0057285,155.328163 35.414618,155.555069 34.9100808,155.330434 L22.1204444,149.636121 C21.6159072,149.411487 21.3890011,148.820376 21.6136356,148.315839 Z M47.7457514,103.053687 C48.0703762,102.606879 48.6957459,102.50783 49.1425537,102.832455 L60.4687916,111.061449 C60.9155993,111.386074 61.0146481,112.011443 60.6900233,112.458251 C60.3653985,112.905059 59.7400288,113.004108 59.2932211,112.679483 L47.9669831,104.450489 C47.5201754,104.125864 47.4211266,103.500495 47.7457514,103.053687 Z M64.2137936,82.7173484 C64.5833443,82.3069209 65.2156415,82.2737836 65.6260691,82.6433342 L76.0300966,92.0111627 C76.4405242,92.3807133 76.4736615,93.0130106 76.1041108,93.4234381 C75.7345602,93.8338657 75.102263,93.867003 74.6918354,93.4974523 L64.2878078,84.1296238 C63.8773803,83.7600732 63.844243,83.127776 64.2137936,82.7173484 Z M82.7173484,64.2137936 C83.127776,63.844243 83.7600732,63.8773803 84.1296238,64.2878078 L93.4974523,74.6918354 C93.867003,75.102263 93.8338657,75.7345602 93.4234381,76.1041108 C93.0130106,76.4736615 92.3807133,76.4405242 92.0111627,76.0300966 L82.6433342,65.6260691 C82.2737836,65.2156415 82.3069209,64.5833443 82.7173484,64.2137936 Z M103.053687,47.7457514 C103.500495,47.4211266 104.125864,47.5201754 104.450489,47.9669831 L112.679483,59.2932211 C113.004108,59.7400288 112.905059,60.3653985 112.458251,60.6900233 C112.011443,61.0146481 111.386074,60.9155993 111.061449,60.4687916 L102.832455,49.1425537 C102.50783,48.6957459 102.606879,48.0703762 103.053687,47.7457514 Z M148.315839,21.6136356 C148.820376,21.3890011 149.411487,21.6159072 149.636121,22.1204444 L155.330434,34.9100808 C155.555069,35.414618 155.328163,36.0057285 154.823626,36.2303629 C154.319088,36.4549974 153.727978,36.2280913 153.503343,35.7235541 L147.80903,22.9339177 C147.584396,22.4293805 147.811302,21.83827 148.315839,21.6136356 Z M172.745751,12.2358709 C173.271005,12.0652056 173.83516,12.3526564 174.005825,12.8779104 L178.332063,26.1927017 C178.502728,26.7179557 178.215277,27.2821098 177.690023,27.4527752 C177.164769,27.6234406 176.600615,27.3359897 176.42995,26.8107357 L172.103712,13.4959444 C171.933047,12.9706904 172.220497,12.4065363 172.745751,12.2358709 Z M198.022077,5.46309982 C198.562293,5.34827336 199.09331,5.69311972 199.208137,6.23333573 L202.1189,19.9274021 C202.233727,20.4676181 201.88888,20.998635 201.348664,21.1134614 C200.808448,21.2282879 200.277432,20.8834415 200.162605,20.3432255 L197.251841,6.64915911 C197.137015,6.10894311 197.481861,5.57792627 198.022077,5.46309982 Z M223.867884,1.36952616 C224.417143,1.31179668 224.909205,1.71026031 224.966935,2.25951959 L226.430333,16.1828261 C226.488063,16.7320854 226.089599,17.224147 225.54034,17.2818765 C224.99108,17.339606 224.499019,16.9411423 224.441289,16.3918831 L222.977891,2.46857652 C222.920161,1.91931724 223.318625,1.42725563 223.867884,1.36952616 Z" id="lines" fill="#ABABAF"></path>
        <path d="M246.745117,5.34863281 L246.745117,7.03515625 L246.379883,7.03515625 C244.833008,7.06380208 243.601237,7.52213542 242.68457,8.41015625 C241.767904,9.29817708 241.237956,10.5478516 241.094727,12.1591797 C241.918294,11.2138672 243.042643,10.7412109 244.467773,10.7412109 C245.828451,10.7412109 246.915202,11.2210286 247.728027,12.1806641 C248.540853,13.1402995 248.947266,14.3792318 248.947266,15.8974609 C248.947266,17.5087891 248.508626,18.7978516 247.631348,19.7646484 C246.754069,20.7314453 245.577799,21.2148438 244.102539,21.2148438 C242.605794,21.2148438 241.391927,20.6401367 240.460938,19.4907227 C239.529948,18.3413086 239.064453,16.8606771 239.064453,15.0488281 L239.064453,14.2861328 C239.064453,11.4072266 239.678548,9.20686849 240.906738,7.68505859 C242.134928,6.1632487 243.962891,5.3844401 246.390625,5.34863281 L246.745117,5.34863281 Z M244.134766,12.3955078 C243.454427,12.3955078 242.827799,12.5996094 242.254883,13.0078125 C241.681966,13.4160156 241.284505,13.9280599 241.0625,14.5439453 L241.0625,15.2744141 C241.0625,16.5634766 241.352539,17.601888 241.932617,18.3896484 C242.512695,19.1774089 243.236003,19.5712891 244.102539,19.5712891 C244.997721,19.5712891 245.701335,19.241862 246.213379,18.5830078 C246.725423,17.9241536 246.981445,17.0611979 246.981445,15.9941406 C246.981445,14.9199219 246.721842,14.0515951 246.202637,13.3891602 C245.683431,12.7267253 244.994141,12.3955078 244.134766,12.3955078 Z M261.107422,14.3291016 C261.107422,16.6565755 260.709961,18.3860677 259.915039,19.5175781 C259.120117,20.6490885 257.877604,21.2148438 256.1875,21.2148438 C254.51888,21.2148438 253.283529,20.6616211 252.481445,19.5551758 C251.679362,18.4487305 251.263997,16.796224 251.235352,14.5976562 L251.235352,11.9443359 C251.235352,9.64550781 251.632812,7.9375 252.427734,6.8203125 C253.222656,5.703125 254.46875,5.14453125 256.166016,5.14453125 C257.848958,5.14453125 259.087891,5.68343099 259.882812,6.76123047 C260.677734,7.83902995 261.085938,9.50227865 261.107422,11.7509766 L261.107422,14.3291016 Z M259.120117,11.6113281 C259.120117,9.92838542 258.883789,8.70198568 258.411133,7.93212891 C257.938477,7.16227214 257.190104,6.77734375 256.166016,6.77734375 C255.149089,6.77734375 254.407878,7.16048177 253.942383,7.92675781 C253.476888,8.69303385 253.236979,9.87109375 253.222656,11.4609375 L253.222656,14.640625 C253.222656,16.3307292 253.467936,17.5786133 253.958496,18.3842773 C254.449056,19.1899414 255.192057,19.5927734 256.1875,19.5927734 C257.16862,19.5927734 257.897298,19.2132161 258.373535,18.4541016 C258.849772,17.694987 259.098633,16.4990234 259.120117,14.8662109 L259.120117,11.6113281 Z M10.3359375,252.74707 L12.5058594,252.74707 L12.5058594,254.369141 L10.3359375,254.369141 L10.3359375,258 L8.33789062,258 L8.33789062,254.369141 L1.21582031,254.369141 L1.21582031,253.198242 L8.21972656,242.359375 L10.3359375,242.359375 L10.3359375,252.74707 Z M3.47167969,252.74707 L8.33789062,252.74707 L8.33789062,245.077148 L8.1015625,245.506836 L3.47167969,252.74707 Z M15.2128906,250.158203 L16.0078125,242.359375 L24.0214844,242.359375 L24.0214844,244.196289 L17.6943359,244.196289 L17.2216797,248.460938 C17.9879557,248.009766 18.8580729,247.78418 19.8320312,247.78418 C21.2571615,247.78418 22.3886719,248.255046 23.2265625,249.196777 C24.0644531,250.138509 24.4833984,251.411458 24.4833984,253.015625 C24.4833984,254.626953 24.0483398,255.896322 23.1782227,256.82373 C22.3081055,257.751139 21.0924479,258.214844 19.53125,258.214844 C18.1490885,258.214844 17.0211589,257.831706 16.1474609,257.06543 C15.273763,256.299154 14.7760417,255.239258 14.6542969,253.885742 L16.5341797,253.885742 C16.6559245,254.780924 16.9746094,255.455892 17.4902344,255.910645 C18.0058594,256.365397 18.6861979,256.592773 19.53125,256.592773 C20.4550781,256.592773 21.1801758,256.277669 21.706543,255.647461 C22.2329102,255.017253 22.4960938,254.147135 22.4960938,253.037109 C22.4960938,251.991536 22.2114258,251.151855 21.6420898,250.518066 C21.0727539,249.884277 20.3154297,249.567383 19.3701172,249.567383 C18.5035807,249.567383 17.8232422,249.757161 17.3291016,250.136719 L16.8027344,250.566406 L15.2128906,250.158203 Z M482.477539,258 L480.479492,258 L480.479492,244.754883 L476.472656,246.226562 L476.472656,244.421875 L482.166016,242.28418 L482.477539,242.28418 L482.477539,258 Z M489.212891,250.158203 L490.007812,242.359375 L498.021484,242.359375 L498.021484,244.196289 L491.694336,244.196289 L491.22168,248.460938 C491.987956,248.009766 492.858073,247.78418 493.832031,247.78418 C495.257161,247.78418 496.388672,248.255046 497.226562,249.196777 C498.064453,250.138509 498.483398,251.411458 498.483398,253.015625 C498.483398,254.626953 498.04834,255.896322 497.178223,256.82373 C496.308105,257.751139 495.092448,258.214844 493.53125,258.214844 C492.149089,258.214844 491.021159,257.831706 490.147461,257.06543 C489.273763,256.299154 488.776042,255.239258 488.654297,253.885742 L490.53418,253.885742 C490.655924,254.780924 490.974609,255.455892 491.490234,255.910645 C492.005859,256.365397 492.686198,256.592773 493.53125,256.592773 C494.455078,256.592773 495.180176,256.277669 495.706543,255.647461 C496.23291,255.017253 496.496094,254.147135 496.496094,253.037109 C496.496094,251.991536 496.211426,251.151855 495.64209,250.518066 C495.072754,249.884277 494.31543,249.567383 493.370117,249.567383 C492.503581,249.567383 491.823242,249.757161 491.329102,250.136719 L490.802734,250.566406 L489.212891,250.158203 Z M241.835938,486.212891 L243.329102,486.212891 C244.267253,486.198568 245.004883,485.951497 245.541992,485.47168 C246.079102,484.991862 246.347656,484.34375 246.347656,483.527344 C246.347656,481.69401 245.43457,480.777344 243.608398,480.777344 C242.749023,480.777344 242.063314,481.022624 241.55127,481.513184 C241.039225,482.003743 240.783203,482.653646 240.783203,483.462891 L238.795898,483.462891 C238.795898,482.223958 239.248861,481.194499 240.154785,480.374512 C241.06071,479.554525 242.211914,479.144531 243.608398,479.144531 C245.083659,479.144531 246.240234,479.534831 247.078125,480.31543 C247.916016,481.096029 248.334961,482.18099 248.334961,483.570312 C248.334961,484.250651 248.114746,484.909505 247.674316,485.546875 C247.233887,486.184245 246.634115,486.660482 245.875,486.975586 C246.734375,487.247721 247.3986,487.698893 247.867676,488.329102 C248.336751,488.95931 248.571289,489.729167 248.571289,490.638672 C248.571289,492.042318 248.112956,493.155924 247.196289,493.979492 C246.279622,494.80306 245.08724,495.214844 243.619141,495.214844 C242.151042,495.214844 240.956868,494.817383 240.036621,494.022461 C239.116374,493.227539 238.65625,492.178385 238.65625,490.875 L240.654297,490.875 C240.654297,491.698568 240.922852,492.357422 241.459961,492.851562 C241.99707,493.345703 242.716797,493.592773 243.619141,493.592773 C244.578776,493.592773 245.312826,493.342122 245.821289,492.84082 C246.329753,492.339518 246.583984,491.619792 246.583984,490.681641 C246.583984,489.772135 246.304688,489.073893 245.746094,488.586914 C245.1875,488.099935 244.381836,487.849284 243.329102,487.834961 L241.835938,487.834961 L241.835938,486.212891 Z M261.107422,488.329102 C261.107422,490.656576 260.709961,492.386068 259.915039,493.517578 C259.120117,494.649089 257.877604,495.214844 256.1875,495.214844 C254.51888,495.214844 253.283529,494.661621 252.481445,493.555176 C251.679362,492.44873 251.263997,490.796224 251.235352,488.597656 L251.235352,485.944336 C251.235352,483.645508 251.632812,481.9375 252.427734,480.820312 C253.222656,479.703125 254.46875,479.144531 256.166016,479.144531 C257.848958,479.144531 259.087891,479.683431 259.882812,480.76123 C260.677734,481.83903 261.085938,483.502279 261.107422,485.750977 L261.107422,488.329102 Z M259.120117,485.611328 C259.120117,483.928385 258.883789,482.701986 258.411133,481.932129 C257.938477,481.162272 257.190104,480.777344 256.166016,480.777344 C255.149089,480.777344 254.407878,481.160482 253.942383,481.926758 C253.476888,482.693034 253.236979,483.871094 253.222656,485.460938 L253.222656,488.640625 C253.222656,490.330729 253.467936,491.578613 253.958496,492.384277 C254.449056,493.189941 255.192057,493.592773 256.1875,493.592773 C257.16862,493.592773 257.897298,493.213216 258.373535,492.454102 C258.849772,491.694987 259.098633,490.499023 259.120117,488.866211 L259.120117,485.611328 Z M368.194336,465 L357.946289,465 L357.946289,463.571289 L363.360352,457.555664 C364.162435,456.646159 364.715658,455.906738 365.02002,455.337402 C365.324382,454.768066 365.476562,454.179036 365.476562,453.570312 C365.476562,452.753906 365.229492,452.08431 364.735352,451.561523 C364.241211,451.038737 363.582357,450.777344 362.758789,450.777344 C361.770508,450.777344 361.002441,451.058431 360.45459,451.620605 C359.906738,452.18278 359.632812,452.965169 359.632812,453.967773 L357.645508,453.967773 C357.645508,452.52832 358.109212,451.364583 359.036621,450.476562 C359.96403,449.588542 361.204753,449.144531 362.758789,449.144531 C364.212565,449.144531 365.361979,449.525879 366.207031,450.288574 C367.052083,451.05127 367.474609,452.066406 367.474609,453.333984 C367.474609,454.873698 366.49349,456.707031 364.53125,458.833984 L360.341797,463.37793 L368.194336,463.37793 L368.194336,465 Z M371.212891,457.158203 L372.007812,449.359375 L380.021484,449.359375 L380.021484,451.196289 L373.694336,451.196289 L373.22168,455.460938 C373.987956,455.009766 374.858073,454.78418 375.832031,454.78418 C377.257161,454.78418 378.388672,455.255046 379.226562,456.196777 C380.064453,457.138509 380.483398,458.411458 380.483398,460.015625 C380.483398,461.626953 380.04834,462.896322 379.178223,463.82373 C378.308105,464.751139 377.092448,465.214844 375.53125,465.214844 C374.149089,465.214844 373.021159,464.831706 372.147461,464.06543 C371.273763,463.299154 370.776042,462.239258 370.654297,460.885742 L372.53418,460.885742 C372.655924,461.780924 372.974609,462.455892 373.490234,462.910645 C374.005859,463.365397 374.686198,463.592773 375.53125,463.592773 C376.455078,463.592773 377.180176,463.277669 377.706543,462.647461 C378.23291,462.017253 378.496094,461.147135 378.496094,460.037109 C378.496094,458.991536 378.211426,458.151855 377.64209,457.518066 C377.072754,456.884277 376.31543,456.567383 375.370117,456.567383 C374.503581,456.567383 373.823242,456.757161 373.329102,457.136719 L372.802734,457.566406 L371.212891,457.158203 Z M122.835938,456.212891 L124.329102,456.212891 C125.267253,456.198568 126.004883,455.951497 126.541992,455.47168 C127.079102,454.991862 127.347656,454.34375 127.347656,453.527344 C127.347656,451.69401 126.43457,450.777344 124.608398,450.777344 C123.749023,450.777344 123.063314,451.022624 122.55127,451.513184 C122.039225,452.003743 121.783203,452.653646 121.783203,453.462891 L119.795898,453.462891 C119.795898,452.223958 120.248861,451.194499 121.154785,450.374512 C122.06071,449.554525 123.211914,449.144531 124.608398,449.144531 C126.083659,449.144531 127.240234,449.534831 128.078125,450.31543 C128.916016,451.096029 129.334961,452.18099 129.334961,453.570312 C129.334961,454.250651 129.114746,454.909505 128.674316,455.546875 C128.233887,456.184245 127.634115,456.660482 126.875,456.975586 C127.734375,457.247721 128.3986,457.698893 128.867676,458.329102 C129.336751,458.95931 129.571289,459.729167 129.571289,460.638672 C129.571289,462.042318 129.112956,463.155924 128.196289,463.979492 C127.279622,464.80306 126.08724,465.214844 124.619141,465.214844 C123.151042,465.214844 121.956868,464.817383 121.036621,464.022461 C120.116374,463.227539 119.65625,462.178385 119.65625,460.875 L121.654297,460.875 C121.654297,461.698568 121.922852,462.357422 122.459961,462.851562 C122.99707,463.345703 123.716797,463.592773 124.619141,463.592773 C125.578776,463.592773 126.312826,463.342122 126.821289,462.84082 C127.329753,462.339518 127.583984,461.619792 127.583984,460.681641 C127.583984,459.772135 127.304688,459.073893 126.746094,458.586914 C126.1875,458.099935 125.381836,457.849284 124.329102,457.834961 L122.835938,457.834961 L122.835938,456.212891 Z M133.212891,457.158203 L134.007812,449.359375 L142.021484,449.359375 L142.021484,451.196289 L135.694336,451.196289 L135.22168,455.460938 C135.987956,455.009766 136.858073,454.78418 137.832031,454.78418 C139.257161,454.78418 140.388672,455.255046 141.226562,456.196777 C142.064453,457.138509 142.483398,458.411458 142.483398,460.015625 C142.483398,461.626953 142.04834,462.896322 141.178223,463.82373 C140.308105,464.751139 139.092448,465.214844 137.53125,465.214844 C136.149089,465.214844 135.021159,464.831706 134.147461,464.06543 C133.273763,463.299154 132.776042,462.239258 132.654297,460.885742 L134.53418,460.885742 C134.655924,461.780924 134.974609,462.455892 135.490234,462.910645 C136.005859,463.365397 136.686198,463.592773 137.53125,463.592773 C138.455078,463.592773 139.180176,463.277669 139.706543,462.647461 C140.23291,462.017253 140.496094,461.147135 140.496094,460.037109 C140.496094,458.991536 140.211426,458.151855 139.64209,457.518066 C139.072754,456.884277 138.31543,456.567383 137.370117,456.567383 C136.503581,456.567383 135.823242,456.757161 135.329102,457.136719 L134.802734,457.566406 L133.212891,457.158203 Z M456.194336,377 L445.946289,377 L445.946289,375.571289 L451.360352,369.555664 C452.162435,368.646159 452.715658,367.906738 453.02002,367.337402 C453.324382,366.768066 453.476562,366.179036 453.476562,365.570312 C453.476562,364.753906 453.229492,364.08431 452.735352,363.561523 C452.241211,363.038737 451.582357,362.777344 450.758789,362.777344 C449.770508,362.777344 449.002441,363.058431 448.45459,363.620605 C447.906738,364.18278 447.632812,364.965169 447.632812,365.967773 L445.645508,365.967773 C445.645508,364.52832 446.109212,363.364583 447.036621,362.476562 C447.96403,361.588542 449.204753,361.144531 450.758789,361.144531 C452.212565,361.144531 453.361979,361.525879 454.207031,362.288574 C455.052083,363.05127 455.474609,364.066406 455.474609,365.333984 C455.474609,366.873698 454.49349,368.707031 452.53125,370.833984 L448.341797,375.37793 L456.194336,375.37793 L456.194336,377 Z M468.107422,370.329102 C468.107422,372.656576 467.709961,374.386068 466.915039,375.517578 C466.120117,376.649089 464.877604,377.214844 463.1875,377.214844 C461.51888,377.214844 460.283529,376.661621 459.481445,375.555176 C458.679362,374.44873 458.263997,372.796224 458.235352,370.597656 L458.235352,367.944336 C458.235352,365.645508 458.632812,363.9375 459.427734,362.820312 C460.222656,361.703125 461.46875,361.144531 463.166016,361.144531 C464.848958,361.144531 466.087891,361.683431 466.882812,362.76123 C467.677734,363.83903 468.085938,365.502279 468.107422,367.750977 L468.107422,370.329102 Z M466.120117,367.611328 C466.120117,365.928385 465.883789,364.701986 465.411133,363.932129 C464.938477,363.162272 464.190104,362.777344 463.166016,362.777344 C462.149089,362.777344 461.407878,363.160482 460.942383,363.926758 C460.476888,364.693034 460.236979,365.871094 460.222656,367.460938 L460.222656,370.640625 C460.222656,372.330729 460.467936,373.578613 460.958496,374.384277 C461.449056,375.189941 462.192057,375.592773 463.1875,375.592773 C464.16862,375.592773 464.897298,375.213216 465.373535,374.454102 C465.849772,373.694987 466.098633,372.499023 466.120117,370.866211 L466.120117,367.611328 Z M40.3359375,371.74707 L42.5058594,371.74707 L42.5058594,373.369141 L40.3359375,373.369141 L40.3359375,377 L38.3378906,377 L38.3378906,373.369141 L31.2158203,373.369141 L31.2158203,372.198242 L38.2197266,361.359375 L40.3359375,361.359375 L40.3359375,371.74707 Z M33.4716797,371.74707 L38.3378906,371.74707 L38.3378906,364.077148 L38.1015625,364.506836 L33.4716797,371.74707 Z M54.1074219,370.329102 C54.1074219,372.656576 53.7099609,374.386068 52.9150391,375.517578 C52.1201172,376.649089 50.8776042,377.214844 49.1875,377.214844 C47.5188802,377.214844 46.2835286,376.661621 45.4814453,375.555176 C44.679362,374.44873 44.2639974,372.796224 44.2353516,370.597656 L44.2353516,367.944336 C44.2353516,365.645508 44.6328125,363.9375 45.4277344,362.820312 C46.2226562,361.703125 47.46875,361.144531 49.1660156,361.144531 C50.8489583,361.144531 52.0878906,361.683431 52.8828125,362.76123 C53.6777344,363.83903 54.0859375,365.502279 54.1074219,367.750977 L54.1074219,370.329102 Z M52.1201172,367.611328 C52.1201172,365.928385 51.8837891,364.701986 51.4111328,363.932129 C50.9384766,363.162272 50.1901042,362.777344 49.1660156,362.777344 C48.1490885,362.777344 47.4078776,363.160482 46.9423828,363.926758 C46.476888,364.693034 46.2369792,365.871094 46.2226562,367.460938 L46.2226562,370.640625 C46.2226562,372.330729 46.4679362,373.578613 46.9584961,374.384277 C47.449056,375.189941 48.1920573,375.592773 49.1875,375.592773 C50.1686198,375.592773 50.8972982,375.213216 51.3735352,374.454102 C51.8497721,373.694987 52.0986328,372.499023 52.1201172,370.866211 L52.1201172,367.611328 Z M452.477539,139 L450.479492,139 L450.479492,125.754883 L446.472656,127.226562 L446.472656,125.421875 L452.166016,123.28418 L452.477539,123.28418 L452.477539,139 Z M468.107422,132.329102 C468.107422,134.656576 467.709961,136.386068 466.915039,137.517578 C466.120117,138.649089 464.877604,139.214844 463.1875,139.214844 C461.51888,139.214844 460.283529,138.661621 459.481445,137.555176 C458.679362,136.44873 458.263997,134.796224 458.235352,132.597656 L458.235352,129.944336 C458.235352,127.645508 458.632812,125.9375 459.427734,124.820312 C460.222656,123.703125 461.46875,123.144531 463.166016,123.144531 C464.848958,123.144531 466.087891,123.683431 466.882812,124.76123 C467.677734,125.83903 468.085938,127.502279 468.107422,129.750977 L468.107422,132.329102 Z M466.120117,129.611328 C466.120117,127.928385 465.883789,126.701986 465.411133,125.932129 C464.938477,125.162272 464.190104,124.777344 463.166016,124.777344 C462.149089,124.777344 461.407878,125.160482 460.942383,125.926758 C460.476888,126.693034 460.236979,127.871094 460.222656,129.460938 L460.222656,132.640625 C460.222656,134.330729 460.467936,135.578613 460.958496,136.384277 C461.449056,137.189941 462.192057,137.592773 463.1875,137.592773 C464.16862,137.592773 464.897298,137.213216 465.373535,136.454102 C465.849772,135.694987 466.098633,134.499023 466.120117,132.866211 L466.120117,129.611328 Z M32.859375,131.158203 L33.6542969,123.359375 L41.6679688,123.359375 L41.6679688,125.196289 L35.3408203,125.196289 L34.8681641,129.460938 C35.6344401,129.009766 36.5045573,128.78418 37.4785156,128.78418 C38.9036458,128.78418 40.0351562,129.255046 40.8730469,130.196777 C41.7109375,131.138509 42.1298828,132.411458 42.1298828,134.015625 C42.1298828,135.626953 41.6948242,136.896322 40.824707,137.82373 C39.9545898,138.751139 38.7389323,139.214844 37.1777344,139.214844 C35.7955729,139.214844 34.6676432,138.831706 33.7939453,138.06543 C32.9202474,137.299154 32.422526,136.239258 32.3007812,134.885742 L34.1806641,134.885742 C34.3024089,135.780924 34.6210938,136.455892 35.1367188,136.910645 C35.6523438,137.365397 36.3326823,137.592773 37.1777344,137.592773 C38.1015625,137.592773 38.8266602,137.277669 39.3530273,136.647461 C39.8793945,136.017253 40.1425781,135.147135 40.1425781,134.037109 C40.1425781,132.991536 39.8579102,132.151855 39.2885742,131.518066 C38.7192383,130.884277 37.9619141,130.567383 37.0166016,130.567383 C36.1500651,130.567383 35.4697266,130.757161 34.9755859,131.136719 L34.4492188,131.566406 L32.859375,131.158203 Z M54.1074219,132.329102 C54.1074219,134.656576 53.7099609,136.386068 52.9150391,137.517578 C52.1201172,138.649089 50.8776042,139.214844 49.1875,139.214844 C47.5188802,139.214844 46.2835286,138.661621 45.4814453,137.555176 C44.679362,136.44873 44.2639974,134.796224 44.2353516,132.597656 L44.2353516,129.944336 C44.2353516,127.645508 44.6328125,125.9375 45.4277344,124.820312 C46.2226562,123.703125 47.46875,123.144531 49.1660156,123.144531 C50.8489583,123.144531 52.0878906,123.683431 52.8828125,124.76123 C53.6777344,125.83903 54.0859375,127.502279 54.1074219,129.750977 L54.1074219,132.329102 Z M52.1201172,129.611328 C52.1201172,127.928385 51.8837891,126.701986 51.4111328,125.932129 C50.9384766,125.162272 50.1901042,124.777344 49.1660156,124.777344 C48.1490885,124.777344 47.4078776,125.160482 46.9423828,125.926758 C46.476888,126.693034 46.2369792,127.871094 46.2226562,129.460938 L46.2226562,132.640625 C46.2226562,134.330729 46.4679362,135.578613 46.9584961,136.384277 C47.449056,137.189941 48.1920573,137.592773 49.1875,137.592773 C50.1686198,137.592773 50.8972982,137.213216 51.3735352,136.454102 C51.8497721,135.694987 52.0986328,134.499023 52.1201172,132.866211 L52.1201172,129.611328 Z M367.753906,44.3291016 C367.753906,46.6565755 367.356445,48.3860677 366.561523,49.5175781 C365.766602,50.6490885 364.524089,51.2148438 362.833984,51.2148438 C361.165365,51.2148438 359.930013,50.6616211 359.12793,49.5551758 C358.325846,48.4487305 357.910482,46.796224 357.881836,44.5976562 L357.881836,41.9443359 C357.881836,39.6455078 358.279297,37.9375 359.074219,36.8203125 C359.869141,35.703125 361.115234,35.1445312 362.8125,35.1445312 C364.495443,35.1445312 365.734375,35.683431 366.529297,36.7612305 C367.324219,37.8390299 367.732422,39.5022786 367.753906,41.7509766 L367.753906,44.3291016 Z M365.766602,41.6113281 C365.766602,39.9283854 365.530273,38.7019857 365.057617,37.9321289 C364.584961,37.1622721 363.836589,36.7773438 362.8125,36.7773438 C361.795573,36.7773438 361.054362,37.1604818 360.588867,37.9267578 C360.123372,38.6930339 359.883464,39.8710938 359.869141,41.4609375 L359.869141,44.640625 C359.869141,46.3307292 360.114421,47.5786133 360.60498,48.3842773 C361.09554,49.1899414 361.838542,49.5927734 362.833984,49.5927734 C363.815104,49.5927734 364.543783,49.2132161 365.02002,48.4541016 C365.496257,47.694987 365.745117,46.4990234 365.766602,44.8662109 L365.766602,41.6113281 Z M371.212891,43.1582031 L372.007812,35.359375 L380.021484,35.359375 L380.021484,37.1962891 L373.694336,37.1962891 L373.22168,41.4609375 C373.987956,41.0097656 374.858073,40.7841797 375.832031,40.7841797 C377.257161,40.7841797 378.388672,41.2550456 379.226562,42.1967773 C380.064453,43.1385091 380.483398,44.4114583 380.483398,46.015625 C380.483398,47.6269531 380.04834,48.8963216 379.178223,49.8237305 C378.308105,50.7511393 377.092448,51.2148438 375.53125,51.2148438 C374.149089,51.2148438 373.021159,50.8317057 372.147461,50.0654297 C371.273763,49.2991536 370.776042,48.2392578 370.654297,46.8857422 L372.53418,46.8857422 C372.655924,47.7809245 372.974609,48.4558919 373.490234,48.9106445 C374.005859,49.3653971 374.686198,49.5927734 375.53125,49.5927734 C376.455078,49.5927734 377.180176,49.2776693 377.706543,48.6474609 C378.23291,48.0172526 378.496094,47.1471354 378.496094,46.0371094 C378.496094,44.9915365 378.211426,44.1518555 377.64209,43.5180664 C377.072754,42.8842773 376.31543,42.5673828 375.370117,42.5673828 C374.503581,42.5673828 373.823242,42.7571615 373.329102,43.1367188 L372.802734,43.5664062 L371.212891,43.1582031 Z M120.859375,43.1582031 L121.654297,35.359375 L129.667969,35.359375 L129.667969,37.1962891 L123.34082,37.1962891 L122.868164,41.4609375 C123.63444,41.0097656 124.504557,40.7841797 125.478516,40.7841797 C126.903646,40.7841797 128.035156,41.2550456 128.873047,42.1967773 C129.710938,43.1385091 130.129883,44.4114583 130.129883,46.015625 C130.129883,47.6269531 129.694824,48.8963216 128.824707,49.8237305 C127.95459,50.7511393 126.738932,51.2148438 125.177734,51.2148438 C123.795573,51.2148438 122.667643,50.8317057 121.793945,50.0654297 C120.920247,49.2991536 120.422526,48.2392578 120.300781,46.8857422 L122.180664,46.8857422 C122.302409,47.7809245 122.621094,48.4558919 123.136719,48.9106445 C123.652344,49.3653971 124.332682,49.5927734 125.177734,49.5927734 C126.101562,49.5927734 126.82666,49.2776693 127.353027,48.6474609 C127.879395,48.0172526 128.142578,47.1471354 128.142578,46.0371094 C128.142578,44.9915365 127.85791,44.1518555 127.288574,43.5180664 C126.719238,42.8842773 125.961914,42.5673828 125.016602,42.5673828 C124.150065,42.5673828 123.469727,42.7571615 122.975586,43.1367188 L122.449219,43.5664062 L120.859375,43.1582031 Z M133.212891,43.1582031 L134.007812,35.359375 L142.021484,35.359375 L142.021484,37.1962891 L135.694336,37.1962891 L135.22168,41.4609375 C135.987956,41.0097656 136.858073,40.7841797 137.832031,40.7841797 C139.257161,40.7841797 140.388672,41.2550456 141.226562,42.1967773 C142.064453,43.1385091 142.483398,44.4114583 142.483398,46.015625 C142.483398,47.6269531 142.04834,48.8963216 141.178223,49.8237305 C140.308105,50.7511393 139.092448,51.2148438 137.53125,51.2148438 C136.149089,51.2148438 135.021159,50.8317057 134.147461,50.0654297 C133.273763,49.2991536 132.776042,48.2392578 132.654297,46.8857422 L134.53418,46.8857422 C134.655924,47.7809245 134.974609,48.4558919 135.490234,48.9106445 C136.005859,49.3653971 136.686198,49.5927734 137.53125,49.5927734 C138.455078,49.5927734 139.180176,49.2776693 139.706543,48.6474609 C140.23291,48.0172526 140.496094,47.1471354 140.496094,46.0371094 C140.496094,44.9915365 140.211426,44.1518555 139.64209,43.5180664 C139.072754,42.8842773 138.31543,42.5673828 137.370117,42.5673828 C136.503581,42.5673828 135.823242,42.7571615 135.329102,43.1367188 L134.802734,43.5664062 L133.212891,43.1582031 Z" id="minutes-small" fill="#1C1C1C" fill-rule="nonzero"></path>
        <path d="M71.8481445,251.8125 C70.8097331,253.047852 69.5699056,254.041504 68.1286621,254.793457 C66.6874186,255.54541 65.1074219,255.921387 63.3886719,255.921387 C61.1328125,255.921387 59.1678874,255.366374 57.4938965,254.256348 C55.8199056,253.146322 54.5263672,251.584229 53.6132812,249.570068 C52.7001953,247.555908 52.2436523,245.33138 52.2436523,242.896484 C52.2436523,240.282552 52.7404785,237.928223 53.7341309,235.833496 C54.7277832,233.73877 56.1376953,232.136393 57.9638672,231.026367 C59.7900391,229.916341 61.9205729,229.361328 64.3554688,229.361328 C68.2226562,229.361328 71.270752,230.807048 73.4997559,233.698486 C75.7287598,236.589925 76.8432617,240.533203 76.8432617,245.52832 L76.8432617,246.978516 C76.8432617,254.587565 75.3393555,260.142171 72.331543,263.642334 C69.3237305,267.142497 64.7851562,268.937337 58.7158203,269.026855 L57.7490234,269.026855 L57.7490234,264.837402 L58.7963867,264.837402 C62.8963216,264.765788 66.0473633,263.696045 68.2495117,261.628174 C70.4516602,259.560303 71.6512044,256.288411 71.8481445,251.8125 Z M64.1943359,251.8125 C65.859375,251.8125 67.3946126,251.302246 68.8000488,250.281738 C70.205485,249.26123 71.2304688,247.999023 71.875,246.495117 L71.875,244.507812 C71.875,241.249349 71.167806,238.599609 69.753418,236.558594 C68.3390299,234.517578 66.5486654,233.49707 64.3823242,233.49707 C62.1980794,233.49707 60.4435221,234.334066 59.1186523,236.008057 C57.7937826,237.682048 57.1313477,239.888672 57.1313477,242.62793 C57.1313477,245.295573 57.771403,247.493245 59.0515137,249.220947 C60.3316243,250.948649 62.0458984,251.8125 64.1943359,251.8125 Z M430.031738,247.032227 L433.764648,247.032227 C436.110026,246.996419 437.954102,246.378743 439.296875,245.179199 C440.639648,243.979655 441.311035,242.359375 441.311035,240.318359 C441.311035,235.735026 439.02832,233.443359 434.462891,233.443359 C432.314453,233.443359 430.600179,234.056559 429.320068,235.282959 C428.039958,236.509359 427.399902,238.134115 427.399902,240.157227 L422.431641,240.157227 C422.431641,237.059896 423.564046,234.486247 425.828857,232.436279 C428.093669,230.386312 430.97168,229.361328 434.462891,229.361328 C438.151042,229.361328 441.04248,230.337077 443.137207,232.288574 C445.231934,234.240072 446.279297,236.952474 446.279297,240.425781 C446.279297,242.126628 445.72876,243.773763 444.627686,245.367188 C443.526611,246.960612 442.027181,248.151204 440.129395,248.938965 C442.277832,249.619303 443.938395,250.747233 445.111084,252.322754 C446.283773,253.898275 446.870117,255.822917 446.870117,258.09668 C446.870117,261.605794 445.724284,264.389811 443.432617,266.44873 C441.140951,268.50765 438.159993,269.537109 434.489746,269.537109 C430.819499,269.537109 427.834066,268.543457 425.533447,266.556152 C423.232829,264.568848 422.08252,261.945964 422.08252,258.6875 L427.077637,258.6875 C427.077637,260.746419 427.749023,262.393555 429.091797,263.628906 C430.43457,264.864258 432.233887,265.481934 434.489746,265.481934 C436.888835,265.481934 438.723958,264.855306 439.995117,263.602051 C441.266276,262.348796 441.901855,260.549479 441.901855,258.204102 C441.901855,255.930339 441.203613,254.184733 439.807129,252.967285 C438.410645,251.749837 436.396484,251.12321 433.764648,251.087402 L430.031738,251.087402 L430.031738,247.032227 Z M424.427734,177 L398.807617,177 L398.807617,173.428223 L412.342773,158.38916 C414.347982,156.115397 415.731038,154.266846 416.491943,152.843506 C417.252848,151.420166 417.633301,149.947591 417.633301,148.425781 C417.633301,146.384766 417.015625,144.710775 415.780273,143.403809 C414.544922,142.096842 412.897786,141.443359 410.838867,141.443359 C408.368164,141.443359 406.447998,142.146077 405.078369,143.551514 C403.70874,144.95695 403.023926,146.912923 403.023926,149.419434 L398.055664,149.419434 C398.055664,145.820801 399.214925,142.911458 401.533447,140.691406 C403.851969,138.471354 406.953776,137.361328 410.838867,137.361328 C414.473307,137.361328 417.346842,138.314697 419.459473,140.221436 C421.572103,142.128174 422.628418,144.666016 422.628418,147.834961 C422.628418,151.684245 420.175618,156.267578 415.27002,161.584961 L404.796387,172.944824 L424.427734,172.944824 L424.427734,177 Z M77.6938477,177 L72.6987305,177 L72.6987305,143.887207 L62.6816406,147.566406 L62.6816406,143.054688 L76.9150391,137.710449 L77.6938477,137.710449 L77.6938477,177 Z M116.768555,160.322754 C116.768555,166.141439 115.774902,170.465169 113.787598,173.293945 C111.800293,176.122721 108.69401,177.537109 104.46875,177.537109 C100.297201,177.537109 97.2088216,176.154053 95.2036133,173.387939 C93.1984049,170.621826 92.1599935,166.49056 92.0883789,160.994141 L92.0883789,154.36084 C92.0883789,148.61377 93.0820312,144.34375 95.0693359,141.550781 C97.0566406,138.757812 100.171875,137.361328 104.415039,137.361328 C108.622396,137.361328 111.719727,138.708577 113.707031,141.403076 C115.694336,144.097575 116.714844,148.255697 116.768555,153.877441 L116.768555,160.322754 Z M111.800293,153.52832 C111.800293,149.320964 111.209473,146.254964 110.027832,144.330322 C108.846191,142.40568 106.97526,141.443359 104.415039,141.443359 C101.872721,141.443359 100.019694,142.401204 98.855957,144.316895 C97.6922201,146.232585 97.0924479,149.177734 97.0566406,153.152344 L97.0566406,161.101562 C97.0566406,165.326823 97.6698405,168.446533 98.8962402,170.460693 C100.12264,172.474854 101.980143,173.481934 104.46875,173.481934 C106.921549,173.481934 108.743245,172.53304 109.933838,170.635254 C111.12443,168.737467 111.746582,165.747559 111.800293,161.665527 L111.800293,153.52832 Z M419.781738,347.867676 L425.206543,347.867676 L425.206543,351.922852 L419.781738,351.922852 L419.781738,361 L414.786621,361 L414.786621,351.922852 L396.981445,351.922852 L396.981445,348.995605 L414.491211,321.898438 L419.781738,321.898438 L419.781738,347.867676 Z M402.621094,347.867676 L414.786621,347.867676 L414.786621,328.692871 L414.195801,329.76709 L402.621094,347.867676 Z M100.520996,332.103516 C100.520996,334.055013 100.006266,335.791667 98.9768066,337.313477 C97.947347,338.835286 96.5553385,340.025879 94.8007812,340.885254 C96.8417969,341.762533 98.4576009,343.042643 99.6481934,344.725586 C100.838786,346.408529 101.434082,348.315267 101.434082,350.445801 C101.434082,353.82959 100.292725,356.524089 98.0100098,358.529297 C95.7272949,360.534505 92.7239583,361.537109 89,361.537109 C85.2402344,361.537109 82.227946,360.530029 79.9631348,358.515869 C77.6983236,356.501709 76.565918,353.811686 76.565918,350.445801 C76.565918,348.333171 77.1433105,346.426432 78.2980957,344.725586 C79.4528809,343.02474 81.0507812,341.735677 83.0917969,340.858398 C81.3551432,339.999023 79.9855143,338.808431 78.9829102,337.286621 C77.980306,335.764811 77.4790039,334.037109 77.4790039,332.103516 C77.4790039,328.809245 78.535319,326.195312 80.6479492,324.261719 C82.7605794,322.328125 85.5445964,321.361328 89,321.361328 C92.4375,321.361328 95.217041,322.328125 97.338623,324.261719 C99.4602051,326.195312 100.520996,328.809245 100.520996,332.103516 Z M96.4658203,350.338379 C96.4658203,348.154134 95.772054,346.372721 94.3845215,344.994141 C92.9969889,343.61556 91.1842448,342.92627 88.9462891,342.92627 C86.7083333,342.92627 84.9134928,343.606608 83.5617676,344.967285 C82.2100423,346.327962 81.5341797,348.118327 81.5341797,350.338379 C81.5341797,352.558431 82.1921387,354.304036 83.5080566,355.575195 C84.8239746,356.846354 86.6546224,357.481934 89,357.481934 C91.327474,357.481934 93.1536458,356.841878 94.4785156,355.561768 C95.8033854,354.281657 96.4658203,352.540527 96.4658203,350.338379 Z M89,325.443359 C87.0485026,325.443359 85.4685059,326.047607 84.2600098,327.256104 C83.0515137,328.4646 82.4472656,330.107259 82.4472656,332.184082 C82.4472656,334.171387 83.0425618,335.778239 84.2331543,337.004639 C85.4237467,338.231038 87.0126953,338.844238 89,338.844238 C90.9873047,338.844238 92.5762533,338.231038 93.7668457,337.004639 C94.9574382,335.778239 95.5527344,334.171387 95.5527344,332.184082 C95.5527344,330.196777 94.9350586,328.576497 93.699707,327.323242 C92.4643555,326.069987 90.8977865,325.443359 89,325.443359 Z M144.693848,109 L139.69873,109 L139.69873,75.887207 L129.681641,79.5664062 L129.681641,75.0546875 L143.915039,69.7104492 L144.693848,69.7104492 L144.693848,109 Z M175.577637,109 L170.58252,109 L170.58252,75.887207 L160.56543,79.5664062 L160.56543,75.0546875 L174.798828,69.7104492 L175.577637,69.7104492 L175.577637,109 Z M348.135742,109 L343.140625,109 L343.140625,75.887207 L333.123535,79.5664062 L333.123535,75.0546875 L347.356934,69.7104492 L348.135742,69.7104492 L348.135742,109 Z M169.051758,392.691406 L152.85791,429 L147.647949,429 L163.788086,393.980469 L142.625977,393.980469 L142.625977,389.898438 L169.051758,389.898438 L169.051758,392.691406 Z M334.090332,409.395508 L336.077637,389.898438 L356.111816,389.898438 L356.111816,394.490723 L340.293945,394.490723 L339.112305,405.152344 C341.027995,404.024414 343.203288,403.460449 345.638184,403.460449 C349.201009,403.460449 352.029785,404.637614 354.124512,406.991943 C356.219238,409.346273 357.266602,412.528646 357.266602,416.539062 C357.266602,420.567383 356.178955,423.740804 354.003662,426.059326 C351.828369,428.377848 348.789225,429.537109 344.88623,429.537109 C341.430827,429.537109 338.611003,428.579264 336.426758,426.663574 C334.242513,424.747884 332.99821,422.098145 332.693848,418.714355 L337.393555,418.714355 C337.697917,420.952311 338.494629,422.63973 339.783691,423.776611 C341.072754,424.913493 342.7736,425.481934 344.88623,425.481934 C347.195801,425.481934 349.008545,424.694173 350.324463,423.118652 C351.640381,421.543132 352.29834,419.367839 352.29834,416.592773 C352.29834,413.978841 351.58667,411.879639 350.16333,410.295166 C348.73999,408.710693 346.84668,407.918457 344.483398,407.918457 C342.317057,407.918457 340.616211,408.392904 339.380859,409.341797 L338.064941,410.416016 L334.090332,409.395508 Z M257.304688,414.871582 L257.304688,419.087891 L256.391602,419.087891 C252.524414,419.159505 249.444987,420.305339 247.15332,422.525391 C244.861654,424.745443 243.536784,427.869629 243.178711,431.897949 C245.23763,429.534668 248.048503,428.353027 251.611328,428.353027 C255.013021,428.353027 257.729899,429.552572 259.761963,431.95166 C261.794027,434.350749 262.810059,437.448079 262.810059,441.243652 C262.810059,445.271973 261.71346,448.494629 259.520264,450.911621 C257.327067,453.328613 254.386393,454.537109 250.698242,454.537109 C246.95638,454.537109 243.921712,453.100342 241.594238,450.226807 C239.266764,447.353271 238.103027,443.651693 238.103027,439.12207 L238.103027,437.215332 C238.103027,430.018066 239.638265,424.517171 242.70874,420.712646 C245.779215,416.908122 250.349121,414.9611 256.418457,414.871582 L257.304688,414.871582 Z M250.778809,432.48877 C249.077962,432.48877 247.511393,432.999023 246.079102,434.019531 C244.64681,435.040039 243.653158,436.32015 243.098145,437.859863 L243.098145,439.686035 C243.098145,442.908691 243.823242,445.50472 245.273438,447.474121 C246.723633,449.443522 248.531901,450.428223 250.698242,450.428223 C252.936198,450.428223 254.695231,449.604655 255.975342,447.95752 C257.255452,446.310384 257.895508,444.152995 257.895508,441.485352 C257.895508,438.799805 257.246501,436.628988 255.948486,434.9729 C254.650472,433.316813 252.927246,432.48877 250.778809,432.48877 Z M238.693848,84 L233.69873,84 L233.69873,50.887207 L223.681641,54.5664062 L223.681641,50.0546875 L237.915039,44.7104492 L238.693848,44.7104492 L238.693848,84 Z M278.869629,84 L253.249512,84 L253.249512,80.4282227 L266.784668,65.3891602 C268.789876,63.1153971 270.172933,61.2668457 270.933838,59.8435059 C271.694743,58.420166 272.075195,56.9475911 272.075195,55.4257812 C272.075195,53.3847656 271.45752,51.7107747 270.222168,50.4038086 C268.986816,49.0968424 267.339681,48.4433594 265.280762,48.4433594 C262.810059,48.4433594 260.889893,49.1460775 259.520264,50.5515137 C258.150635,51.9569499 257.46582,53.9129232 257.46582,56.4194336 L252.497559,56.4194336 C252.497559,52.8208008 253.65682,49.9114583 255.975342,47.6914062 C258.293864,45.4713542 261.395671,44.3613281 265.280762,44.3613281 C268.915202,44.3613281 271.788737,45.3146973 273.901367,47.2214355 C276.013997,49.1281738 277.070312,51.6660156 277.070312,54.8349609 C277.070312,58.6842448 274.617513,63.2675781 269.711914,68.5849609 L259.238281,79.9448242 L278.869629,79.9448242 L278.869629,84 Z" id="minutes-big" fill="#1C1C1C" fill-rule="nonzero"></path>
    </g>
</svg>