<?xml version="1.0" encoding="UTF-8"?>
<svg width="249px" height="249px" viewBox="0 0 249 249" version="1.1" xmlns="http://www.w3.org/2000/svg" xmlns:xlink="http://www.w3.org/1999/xlink">
    <title>clock-face</title>
    <g id="clock-face" stroke="none" stroke-width="1" fill="none" fill-rule="evenodd">
        <path d="M124.5,8 C125.880712,8 127,9.11928813 127,10.5 L127,19.5 C127,20.8807119 125.880712,22 124.5,22 C123.119288,22 122,20.8807119 122,19.5 L122,10.5 C122,9.11928813 123.119288,8 124.5,8 Z M182.75,23.6080405 C183.945732,24.2983964 184.355419,25.8273724 183.665064,27.023104 L179.165064,34.8173326 C178.474708,36.0130642 176.945732,36.422752 175.75,35.7323961 C174.554268,35.0420402 174.144581,33.5130642 174.834936,32.3173326 L179.334936,24.523104 C180.025292,23.3273724 181.554268,22.9176845 182.75,23.6080405 Z M218.75048,56.0230181 C219.562042,57.1400375 219.31442,58.7034616 218.1974,59.5150237 L210.916248,64.805091 C209.799228,65.6166531 208.235804,65.369031 207.424242,64.2520116 C206.61268,63.1349923 206.860302,61.5715681 207.977321,60.760006 L215.258474,55.4699388 C216.375494,54.6583767 217.938918,54.9059987 218.75048,56.0230181 Z M241,124.5 C241,125.880712 239.880712,127 238.5,127 L229.5,127 C228.119288,127 227,125.880712 227,124.5 C227,123.119288 228.119288,122 229.5,122 L238.5,122 C239.880712,122 241,123.119288 241,124.5 Z M225.39196,182.75 C224.701604,183.945732 223.172628,184.355419 221.976896,183.665064 L214.182667,179.165064 C212.986936,178.474708 212.577248,176.945732 213.267604,175.75 C213.95796,174.554268 215.486936,174.144581 216.682667,174.834936 L224.476896,179.334936 C225.672628,180.025292 226.082315,181.554268 225.39196,182.75 Z M182.75,225.39196 C181.554268,226.082315 180.025292,225.672628 179.334936,224.476896 L174.834936,216.682667 C174.144581,215.486936 174.554268,213.95796 175.75,213.267604 C176.945732,212.577248 178.474708,212.986936 179.165064,214.182667 L183.665064,221.976896 C184.355419,223.172628 183.945732,224.701604 182.75,225.39196 Z M124.5,241 C123.119288,241 122,239.880712 122,238.5 L122,229.5 C122,228.119288 123.119288,227 124.5,227 C125.880712,227 127,228.119288 127,229.5 L127,238.5 C127,239.880712 125.880712,241 124.5,241 Z M66.25,225.39196 C65.0542684,224.701604 64.6445806,223.172628 65.3349365,221.976896 L69.8349365,214.182667 C70.5252924,212.986936 72.0542684,212.577248 73.25,213.267604 C74.4457316,213.95796 74.8554194,215.486936 74.1650635,216.682667 L69.6650635,224.476896 C68.9747076,225.672628 67.4457316,226.082315 66.25,225.39196 Z M23.6080405,182.75 C22.9176845,181.554268 23.3273724,180.025292 24.523104,179.334936 L32.3173326,174.834936 C33.5130642,174.144581 35.0420402,174.554268 35.7323961,175.75 C36.422752,176.945732 36.0130642,178.474708 34.8173326,179.165064 L27.023104,183.665064 C25.8273724,184.355419 24.2983964,183.945732 23.6080405,182.75 Z M8,124.5 C8,123.119288 9.11928813,122 10.5,122 L19.5,122 C20.8807119,122 22,123.119288 22,124.5 C22,125.880712 20.8807119,127 19.5,127 L10.5,127 C9.11928813,127 8,125.880712 8,124.5 Z M23.6080405,66.25 C24.2983964,65.0542684 25.8273724,64.6445806 27.023104,65.3349365 L34.8173326,69.8349365 C36.0130642,70.5252924 36.422752,72.0542684 35.7323961,73.25 C35.0420402,74.4457316 33.5130642,74.8554194 32.3173326,74.1650635 L24.523104,69.6650635 C23.3273724,68.9747076 22.9176845,67.4457316 23.6080405,66.25 Z M66.25,23.6080405 C67.4457316,22.9176845 68.9747076,23.3273724 69.6650635,24.523104 L74.1650635,32.3173326 C74.8554194,33.5130642 74.4457316,35.0420402 73.25,35.7323961 C72.0542684,36.422752 70.5252924,36.0130642 69.8349365,34.8173326 L65.3349365,27.023104 C64.6445806,25.8273724 65.0542684,24.2983964 66.25,23.6080405 Z" id="Combined-Shape" fill="#FFFFFF"></path>
        <path d="M136.677566,8.63819919 C138.050714,8.78252288 139.046873,10.0126769 138.90255,11.3858251 L137.961793,20.3365221 C137.81747,21.7096703 136.587316,22.7058294 135.214167,22.5615057 C133.841019,22.417182 132.84486,21.187028 132.989184,19.8138798 L133.92994,10.8631828 C134.074264,9.49003458 135.304418,8.4938755 136.677566,8.63819919 Z M148.721712,10.5458045 C150.072252,10.8328707 150.934368,12.1604127 150.647302,13.5109527 L148.776097,22.3142811 C148.48903,23.6648212 147.161488,24.5269371 145.810948,24.2398709 C144.460408,23.9528048 143.598292,22.6252627 143.885359,21.2747227 L145.756564,12.4713943 C146.04363,11.1208543 147.371172,10.2587384 148.721712,10.5458045 Z M160.50048,13.7019159 C161.813615,14.1285793 162.532242,15.5389646 162.105579,16.8520996 L159.324426,25.4116083 C158.897762,26.7247433 157.487377,27.4433705 156.174242,27.0167071 C154.861107,26.5900436 154.14248,25.1796583 154.569143,23.8665233 L157.350296,15.3070147 C157.77696,13.9938796 159.187345,13.2752524 160.50048,13.7019159 Z M171.884819,18.0719542 C173.146162,18.6335403 173.713427,20.1113164 173.151841,21.3726594 L169.491211,29.5945686 C168.929625,30.8559116 167.451849,31.4231767 166.190506,30.8615906 C164.929163,30.3000045 164.361898,28.8222284 164.923484,27.5608853 L168.584114,19.3389762 C169.1457,18.0776332 170.623476,17.5103681 171.884819,18.0719542 Z M211.076372,46.5462844 C212.000249,47.5723532 211.917406,49.1530964 210.891337,50.0769729 L204.203033,56.0991484 C203.176964,57.023025 201.596221,56.9401817 200.672345,55.9141128 C199.748468,54.888044 199.831311,53.3073008 200.85738,52.3834243 L207.545684,46.3612488 C208.571752,45.4373722 210.152496,45.5202155 211.076372,46.5462844 Z M202.453716,37.9236278 C203.479785,38.8475044 203.562628,40.4282475 202.638751,41.4543164 L196.616576,48.1426198 C195.692699,49.1686887 194.111956,49.251532 193.085887,48.3276554 C192.059818,47.4037788 191.976975,45.8230357 192.900852,44.7969668 L198.923027,38.1086634 C199.846904,37.0825945 201.427647,36.9997513 202.453716,37.9236278 Z M192.976982,30.2495202 C194.094001,31.0610822 194.341623,32.6245064 193.530061,33.7415258 L188.239994,41.0226787 C187.428432,42.1396981 185.865008,42.3873202 184.747988,41.5757581 C183.630969,40.764196 183.383347,39.2007718 184.194909,38.0837525 L189.484976,30.8025995 C190.296538,29.6855801 191.859963,29.4379581 192.976982,30.2495202 Z M225.39196,66.25 C226.082315,67.4457316 225.672628,68.9747076 224.476896,69.6650635 L216.682667,74.1650635 C215.486936,74.8554194 213.95796,74.4457316 213.267604,73.25 C212.577248,72.0542684 212.986936,70.5252924 214.182667,69.8349365 L221.976896,65.3349365 C223.172628,64.6445806 224.701604,65.0542684 225.39196,66.25 Z M230.928046,77.1151811 C231.489632,78.3765241 230.922367,79.8543002 229.661024,80.4158863 L221.439115,84.0765161 C220.177772,84.6381022 218.699996,84.0708371 218.138409,82.8094941 C217.576823,81.548151 218.144088,80.0703749 219.405431,79.5087888 L227.627341,75.848159 C228.888684,75.2865729 230.36646,75.853838 230.928046,77.1151811 Z M235.298084,88.4995202 C235.724748,89.8126552 235.00612,91.2230405 233.692985,91.6497039 L225.133477,94.4308569 C223.820342,94.8575203 222.409956,94.1388931 221.983293,92.8257581 C221.556629,91.5126231 222.275257,90.1022377 223.588392,89.6755743 L232.1479,86.8944214 C233.461035,86.4677579 234.871421,87.1863851 235.298084,88.4995202 Z M238.454195,100.278288 C238.741262,101.628828 237.879146,102.95637 236.528606,103.243436 L227.725277,105.114641 C226.374737,105.401708 225.047195,104.539592 224.760129,103.189052 C224.473063,101.838512 225.335179,100.51097 226.685719,100.223903 L235.489047,98.3526982 C236.839587,98.0656321 238.167129,98.927748 238.454195,100.278288 Z M240.361801,112.322434 C240.506125,113.695582 239.509965,114.925736 238.136817,115.07006 L229.18612,116.010816 C227.812972,116.15514 226.582818,115.158981 226.438494,113.785833 C226.294171,112.412684 227.29033,111.18253 228.663478,111.038207 L237.614175,110.09745 C238.987323,109.953127 240.217477,110.949286 240.361801,112.322434 Z M240.361801,136.677566 C240.217477,138.050714 238.987323,139.046873 237.614175,138.90255 L228.663478,137.961793 C227.29033,137.81747 226.294171,136.587316 226.438494,135.214167 C226.582818,133.841019 227.812972,132.84486 229.18612,132.989184 L238.136817,133.92994 C239.509965,134.074264 240.506125,135.304418 240.361801,136.677566 Z M238.454195,148.721712 C238.167129,150.072252 236.839587,150.934368 235.489047,150.647302 L226.685719,148.776097 C225.335179,148.48903 224.473063,147.161488 224.760129,145.810948 C225.047195,144.460408 226.374737,143.598292 227.725277,143.885359 L236.528606,145.756564 C237.879146,146.04363 238.741262,147.371172 238.454195,148.721712 Z M235.298084,160.50048 C234.871421,161.813615 233.461035,162.532242 232.1479,162.105579 L223.588392,159.324426 C222.275257,158.897762 221.556629,157.487377 221.983293,156.174242 C222.409956,154.861107 223.820342,154.14248 225.133477,154.569143 L233.692985,157.350296 C235.00612,157.77696 235.724748,159.187345 235.298084,160.50048 Z M230.928046,171.884819 C230.36646,173.146162 228.888684,173.713427 227.627341,173.151841 L219.405431,169.491211 C218.144088,168.929625 217.576823,167.451849 218.138409,166.190506 C218.699996,164.929163 220.177772,164.361898 221.439115,164.923484 L229.661024,168.584114 C230.922367,169.1457 231.489632,170.623476 230.928046,171.884819 Z M188.239994,207.977321 L193.530061,215.258474 C194.341623,216.375494 194.094001,217.938918 192.976982,218.75048 C191.859963,219.562042 190.296538,219.31442 189.484976,218.1974 L184.194909,210.916248 C183.383347,209.799228 183.630969,208.235804 184.747988,207.424242 C185.865008,206.61268 187.428432,206.860302 188.239994,207.977321 Z M196.616576,200.85738 L202.638751,207.545684 C203.562628,208.571752 203.479785,210.152496 202.453716,211.076372 C201.427647,212.000249 199.846904,211.917406 198.923027,210.891337 L192.900852,204.203033 C191.976975,203.176964 192.059818,201.596221 193.085887,200.672345 C194.111956,199.748468 195.692699,199.831311 196.616576,200.85738 Z M204.203033,192.900852 L210.891337,198.923027 C211.917406,199.846904 212.000249,201.427647 211.076372,202.453716 C210.152496,203.479785 208.571752,203.562628 207.545684,202.638751 L200.85738,196.616576 C199.831311,195.692699 199.748468,194.111956 200.672345,193.085887 C201.596221,192.059818 203.176964,191.976975 204.203033,192.900852 Z M210.916248,184.194909 L218.1974,189.484976 C219.31442,190.296538 219.562042,191.859963 218.75048,192.976982 C217.938918,194.094001 216.375494,194.341623 215.258474,193.530061 L207.977321,188.239994 C206.860302,187.428432 206.61268,185.865008 207.424242,184.747988 C208.235804,183.630969 209.799228,183.383347 210.916248,184.194909 Z M171.884819,230.928046 C170.623476,231.489632 169.1457,230.922367 168.584114,229.661024 L164.923484,221.439115 C164.361898,220.177772 164.929163,218.699996 166.190506,218.138409 C167.451849,217.576823 168.929625,218.144088 169.491211,219.405431 L173.151841,227.627341 C173.713427,228.888684 173.146162,230.36646 171.884819,230.928046 Z M160.50048,235.298084 C159.187345,235.724748 157.77696,235.00612 157.350296,233.692985 L154.569143,225.133477 C154.14248,223.820342 154.861107,222.409956 156.174242,221.983293 C157.487377,221.556629 158.897762,222.275257 159.324426,223.588392 L162.105579,232.1479 C162.532242,233.461035 161.813615,234.871421 160.50048,235.298084 Z M148.721712,238.454195 C147.371172,238.741262 146.04363,237.879146 145.756564,236.528606 L143.885359,227.725277 C143.598292,226.374737 144.460408,225.047195 145.810948,224.760129 C147.161488,224.473063 148.48903,225.335179 148.776097,226.685719 L150.647302,235.489047 C150.934368,236.839587 150.072252,238.167129 148.721712,238.454195 Z M136.677566,240.361801 C135.304418,240.506125 134.074264,239.509965 133.92994,238.136817 L132.989184,229.18612 C132.84486,227.812972 133.841019,226.582818 135.214167,226.438494 C136.587316,226.294171 137.81747,227.29033 137.961793,228.663478 L138.90255,237.614175 C139.046873,238.987323 138.050714,240.217477 136.677566,240.361801 Z M112.322434,240.361801 C110.949286,240.217477 109.953127,238.987323 110.09745,237.614175 L111.038207,228.663478 C111.18253,227.29033 112.412684,226.294171 113.785833,226.438494 C115.158981,226.582818 116.15514,227.812972 116.010816,229.18612 L115.07006,238.136817 C114.925736,239.509965 113.695582,240.506125 112.322434,240.361801 Z M100.278288,238.454195 C98.927748,238.167129 98.0656321,236.839587 98.3526982,235.489047 L100.223903,226.685719 C100.51097,225.335179 101.838512,224.473063 103.189052,224.760129 C104.539592,225.047195 105.401708,226.374737 105.114641,227.725277 L103.243436,236.528606 C102.95637,237.879146 101.628828,238.741262 100.278288,238.454195 Z M88.4995202,235.298084 C87.1863851,234.871421 86.4677579,233.461035 86.8944214,232.1479 L89.6755743,223.588392 C90.1022377,222.275257 91.5126231,221.556629 92.8257581,221.983293 C94.1388931,222.409956 94.8575203,223.820342 94.4308569,225.133477 L91.6497039,233.692985 C91.2230405,235.00612 89.8126552,235.724748 88.4995202,235.298084 Z M77.1151811,230.928046 C75.853838,230.36646 75.2865729,228.888684 75.848159,227.627341 L79.5087888,219.405431 C80.0703749,218.144088 81.548151,217.576823 82.8094941,218.138409 C84.0708371,218.699996 84.6381022,220.177772 84.0765161,221.439115 L80.4158863,229.661024 C79.8543002,230.922367 78.3765241,231.489632 77.1151811,230.928046 Z M64.2520116,207.424242 C65.369031,208.235804 65.6166531,209.799228 64.805091,210.916248 L59.5150237,218.1974 C58.7034616,219.31442 57.1400375,219.562042 56.0230181,218.75048 C54.9059987,217.938918 54.6583767,216.375494 55.4699388,215.258474 L60.760006,207.977321 C61.5715681,206.860302 63.1349923,206.61268 64.2520116,207.424242 Z M55.9141128,200.672345 C56.9401817,201.596221 57.023025,203.176964 56.0991484,204.203033 L50.0769729,210.891337 C49.1530964,211.917406 47.5723532,212.000249 46.5462844,211.076372 C45.5202155,210.152496 45.4373722,208.571752 46.3612488,207.545684 L52.3834243,200.85738 C53.3073008,199.831311 54.888044,199.748468 55.9141128,200.672345 Z M48.3276554,193.085887 C49.251532,194.111956 49.1686887,195.692699 48.1426198,196.616576 L41.4543164,202.638751 C40.4282475,203.562628 38.8475044,203.479785 37.9236278,202.453716 C36.9997513,201.427647 37.0825945,199.846904 38.1086634,198.923027 L44.7969668,192.900852 C45.8230357,191.976975 47.4037788,192.059818 48.3276554,193.085887 Z M41.5757581,184.747988 C42.3873202,185.865008 42.1396981,187.428432 41.0226787,188.239994 L33.7415258,193.530061 C32.6245064,194.341623 31.0610822,194.094001 30.2495202,192.976982 C29.4379581,191.859963 29.6855801,190.296538 30.8025995,189.484976 L38.0837525,184.194909 C39.2007718,183.383347 40.764196,183.630969 41.5757581,184.747988 Z M18.0719542,171.884819 C17.5103681,170.623476 18.0776332,169.1457 19.3389762,168.584114 L27.5608853,164.923484 C28.8222284,164.361898 30.3000045,164.929163 30.8615906,166.190506 C31.4231767,167.451849 30.8559116,168.929625 29.5945686,169.491211 L21.3726594,173.151841 C20.1113164,173.713427 18.6335403,173.146162 18.0719542,171.884819 Z M13.7019159,160.50048 C13.2752524,159.187345 13.9938796,157.77696 15.3070147,157.350296 L23.8665233,154.569143 C25.1796583,154.14248 26.5900436,154.861107 27.0167071,156.174242 C27.4433705,157.487377 26.7247433,158.897762 25.4116083,159.324426 L16.8520996,162.105579 C15.5389646,162.532242 14.1285793,161.813615 13.7019159,160.50048 Z M10.5458045,148.721712 C10.2587384,147.371172 11.1208543,146.04363 12.4713943,145.756564 L21.2747227,143.885359 C22.6252627,143.598292 23.9528048,144.460408 24.2398709,145.810948 C24.5269371,147.161488 23.6648212,148.48903 22.3142811,148.776097 L13.5109527,150.647302 C12.1604127,150.934368 10.8328707,150.072252 10.5458045,148.721712 Z M8.63819919,136.677566 C8.4938755,135.304418 9.49003458,134.074264 10.8631828,133.92994 L19.8138798,132.989184 C21.187028,132.84486 22.417182,133.841019 22.5615057,135.214167 C22.7058294,136.587316 21.7096703,137.81747 20.3365221,137.961793 L11.3858251,138.90255 C10.0126769,139.046873 8.78252288,138.050714 8.63819919,136.677566 Z M8.63819919,112.322434 C8.78252288,110.949286 10.0126769,109.953127 11.3858251,110.09745 L20.3365221,111.038207 C21.7096703,111.18253 22.7058294,112.412684 22.5615057,113.785833 C22.417182,115.158981 21.187028,116.15514 19.8138798,116.010816 L10.8631828,115.07006 C9.49003458,114.925736 8.4938755,113.695582 8.63819919,112.322434 Z M10.5458045,100.278288 C10.8328707,98.927748 12.1604127,98.0656321 13.5109527,98.3526982 L22.3142811,100.223903 C23.6648212,100.51097 24.5269371,101.838512 24.2398709,103.189052 C23.9528048,104.539592 22.6252627,105.401708 21.2747227,105.114641 L12.4713943,103.243436 C11.1208543,102.95637 10.2587384,101.628828 10.5458045,100.278288 Z M13.7019159,88.4995202 C14.1285793,87.1863851 15.5389646,86.4677579 16.8520996,86.8944214 L25.4116083,89.6755743 C26.7247433,90.1022377 27.4433705,91.5126231 27.0167071,92.8257581 C26.5900436,94.1388931 25.1796583,94.8575203 23.8665233,94.4308569 L15.3070147,91.6497039 C13.9938796,91.2230405 13.2752524,89.8126552 13.7019159,88.4995202 Z M18.0719542,77.1151811 C18.6335403,75.853838 20.1113164,75.2865729 21.3726594,75.848159 L29.5945686,79.5087888 C30.8559116,80.0703749 31.4231767,81.548151 30.8615906,82.8094941 C30.3000045,84.0708371 28.8222284,84.6381022 27.5608853,84.0765161 L19.3389762,80.4158863 C18.0776332,79.8543002 17.5103681,78.3765241 18.0719542,77.1151811 Z M33.7415258,55.4699388 L41.0226787,60.760006 C42.1396981,61.5715681 42.3873202,63.1349923 41.5757581,64.2520116 C40.764196,65.369031 39.2007718,65.6166531 38.0837525,64.805091 L30.8025995,59.5150237 C29.6855801,58.7034616 29.4379581,57.1400375 30.2495202,56.0230181 C31.0610822,54.9059987 32.6245064,54.6583767 33.7415258,55.4699388 Z M41.4543164,46.3612488 L48.1426198,52.3834243 C49.1686887,53.3073008 49.251532,54.888044 48.3276554,55.9141128 C47.4037788,56.9401817 45.8230357,57.023025 44.7969668,56.0991484 L38.1086634,50.0769729 C37.0825945,49.1530964 36.9997513,47.5723532 37.9236278,46.5462844 C38.8475044,45.5202155 40.4282475,45.4373722 41.4543164,46.3612488 Z M50.0769729,38.1086634 L56.0991484,44.7969668 C57.023025,45.8230357 56.9401817,47.4037788 55.9141128,48.3276554 C54.888044,49.251532 53.3073008,49.1686887 52.3834243,48.1426198 L46.3612488,41.4543164 C45.4373722,40.4282475 45.5202155,38.8475044 46.5462844,37.9236278 C47.5723532,36.9997513 49.1530964,37.0825945 50.0769729,38.1086634 Z M59.5150237,30.8025995 L64.805091,38.0837525 C65.6166531,39.2007718 65.369031,40.764196 64.2520116,41.5757581 C63.1349923,42.3873202 61.5715681,42.1396981 60.760006,41.0226787 L55.4699388,33.7415258 C54.6583767,32.6245064 54.9059987,31.0610822 56.0230181,30.2495202 C57.1400375,29.4379581 58.7034616,29.6855801 59.5150237,30.8025995 Z M77.1151811,18.0719542 C78.3765241,17.5103681 79.8543002,18.0776332 80.4158863,19.3389762 L84.0765161,27.5608853 C84.6381022,28.8222284 84.0708371,30.3000045 82.8094941,30.8615906 C81.548151,31.4231767 80.0703749,30.8559116 79.5087888,29.5945686 L75.848159,21.3726594 C75.2865729,20.1113164 75.853838,18.6335403 77.1151811,18.0719542 Z M88.4995202,13.7019159 C89.8126552,13.2752524 91.2230405,13.9938796 91.6497039,15.3070147 L94.4308569,23.8665233 C94.8575203,25.1796583 94.1388931,26.5900436 92.8257581,27.0167071 C91.5126231,27.4433705 90.1022377,26.7247433 89.6755743,25.4116083 L86.8944214,16.8520996 C86.4677579,15.5389646 87.1863851,14.1285793 88.4995202,13.7019159 Z M100.278288,10.5458045 C101.628828,10.2587384 102.95637,11.1208543 103.243436,12.4713943 L105.114641,21.2747227 C105.401708,22.6252627 104.539592,23.9528048 103.189052,24.2398709 C101.838512,24.5269371 100.51097,23.6648212 100.223903,22.3142811 L98.3526982,13.5109527 C98.0656321,12.1604127 98.927748,10.8328707 100.278288,10.5458045 Z M112.322434,8.63819919 C113.695582,8.4938755 114.925736,9.49003458 115.07006,10.8631828 L116.010816,19.8138798 C116.15514,21.187028 115.158981,22.417182 113.785833,22.5615057 C112.412684,22.7058294 111.18253,21.7096703 111.038207,20.3365221 L110.09745,11.3858251 C109.953127,10.0126769 110.949286,8.78252288 112.322434,8.63819919 Z" id="Combined-Shape" fill="#5C5A60"></path>
    </g>
</svg>