<?xml version="1.0" encoding="UTF-8"?>
<svg width="63px" height="249px" viewBox="0 0 63 249" version="1.1" xmlns="http://www.w3.org/2000/svg" xmlns:xlink="http://www.w3.org/1999/xlink">
    <title>min-hand</title>
    <g id="min-hand" stroke="none" stroke-width="1" fill="none" fill-rule="evenodd">
        <path d="M31.5,9 C33.9852814,9 36,11.0147186 36,13.5 L36.0003204,108.621188 C42.9256709,110.580081 48,116.947454 48,124.5 C48,133.612698 40.6126984,141 31.5,141 C22.3873016,141 15,133.612698 15,124.5 C15,116.94709 20.0748174,110.579468 27.0006793,108.620905 L27,13.5 C27,11.0147186 29.0147186,9 31.5,9 Z M31.5,117 C27.3578644,117 24,120.357864 24,124.5 C24,128.642136 27.3578644,132 31.5,132 C35.6421356,132 39,128.642136 39,124.5 C39,120.357864 35.6421356,117 31.5,117 Z" id="Combined-Shape" fill="#FFFFFF"></path>
    </g>
</svg>