<?xml version="1.0" encoding="iso-8859-1"?>
<!-- Uploaded to: SVG Repo, www.svgrepo.com, Generator: SVG Repo Mixer Tools -->
<svg fill="#000000" height="800px" width="800px" version="1.1" id="Layer_1" xmlns="http://www.w3.org/2000/svg" xmlns:xlink="http://www.w3.org/1999/xlink" 
	 viewBox="0 0 297 297" xml:space="preserve">
<g>
	<g>
		<g>
			<path d="M250.231,155.694c-3.973,0-7.194-3.221-7.194-7.194s3.221-7.194,7.194-7.194h7.603
				c-1.626-24.965-11.648-47.673-27.266-65.327l-5.229,5.23c-1.405,1.405-3.247,2.108-5.087,2.108c-1.841,0-3.681-0.703-5.086-2.107
				c-2.81-2.809-2.81-7.364-0.001-10.173l5.193-5.194C202.8,50.56,180.345,40.772,155.694,39.166v7.603
				c0,3.973-3.221,7.194-7.194,7.194s-7.194-3.221-7.194-7.194v-7.603c-24.743,1.612-47.272,11.468-64.858,26.849l5.646,5.646
				c2.809,2.81,2.809,7.364,0,10.174c-1.405,1.404-3.247,2.107-5.087,2.107c-1.841,0-3.682-0.703-5.087-2.107l-5.661-5.661
				c-15.52,17.626-25.473,40.26-27.093,65.132h8.487c3.973,0,7.194,3.221,7.194,7.194s-3.221,7.194-7.194,7.194h-8.487
				c1.606,24.652,11.394,47.107,26.677,64.664l6.076-6.077c2.81-2.81,7.363-2.809,10.173-0.001c2.81,2.809,2.81,7.364,0.001,10.173
				l-6.115,6.115c17.654,15.618,40.362,25.64,65.327,27.266v-8.487c0-3.973,3.221-7.194,7.194-7.194s7.194,3.221,7.194,7.194v8.487
				c24.873-1.62,47.506-11.573,65.132-27.093l-5.661-5.661c-2.809-2.81-2.809-7.364,0-10.174c2.81-2.808,7.364-2.808,10.174,0
				l5.646,5.646c15.381-17.586,25.238-40.115,26.849-64.858L250.231,155.694L250.231,155.694z M196.859,155.694H148.5
				c-3.973,0-7.194-3.221-7.194-7.194V78.91c0-3.973,3.221-7.194,7.194-7.194s7.194,3.221,7.194,7.194v62.397h41.165
				c3.973,0,7.194,3.221,7.194,7.194C204.053,152.474,200.832,155.694,196.859,155.694z"/>
			<path d="M148.5,0C66.617,0,0,66.617,0,148.5S66.617,297,148.5,297S297,230.383,297,148.5S230.383,0,148.5,0z M148.5,272.464
				c-68.354,0-123.964-55.61-123.964-123.964S80.146,24.536,148.5,24.536S272.464,80.146,272.464,148.5
				S216.854,272.464,148.5,272.464z"/>
		</g>
	</g>
</g>
</svg>