<?xml version="1.0" encoding="UTF-8"?>
<svg width="600px" height="600px" viewBox="0 0 600 600" version="1.1" xmlns="http://www.w3.org/2000/svg" xmlns:xlink="http://www.w3.org/1999/xlink">
    <title>assets/icon</title>
    <g id="/assets/icon" stroke="none" stroke-width="1" fill="none" fill-rule="evenodd">
        <g id="icon" fill="#000000" fill-rule="nonzero">
            <path d="M505.517172,314.533333 C497.490909,314.533333 490.983838,308.026263 490.983838,300 C490.983838,291.973737 497.490909,285.466667 505.517172,285.466667 L520.876768,285.466667 C517.591919,235.032323 497.345455,189.157576 465.793939,153.492929 L455.230303,164.058586 C452.391919,166.89697 448.670707,168.317172 444.953535,168.317172 C441.234343,168.317172 437.517172,166.89697 434.678788,164.060606 C429.00202,158.385859 429.00202,149.183838 434.676768,143.509091 L445.167677,133.016162 C409.69697,102.141414 364.333333,82.3676768 314.533333,79.1232323 L314.533333,94.4828283 C314.533333,102.509091 308.026263,109.016162 300,109.016162 C291.973737,109.016162 285.466667,102.509091 285.466667,94.4828283 L285.466667,79.1232323 C235.480808,82.379798 189.967677,102.290909 154.440404,133.363636 L165.846465,144.769697 C171.521212,150.446465 171.521212,159.646465 165.846465,165.323232 C163.008081,168.159596 159.286869,169.579798 155.569697,169.579798 C151.850505,169.579798 148.131313,168.159596 145.292929,165.323232 L133.856566,153.886869 C102.50303,189.494949 82.3959596,235.220202 79.1232323,285.466667 L96.2686869,285.466667 C104.294949,285.466667 110.80202,291.973737 110.80202,300 C110.80202,308.026263 104.294949,314.533333 96.2686869,314.533333 L79.1232323,314.533333 C82.3676768,364.335354 102.141414,409.69899 133.016162,445.167677 L145.290909,432.890909 C150.967677,427.214141 160.165657,427.216162 165.842424,432.888889 C171.519192,438.563636 171.519192,447.765657 165.844444,453.440404 L153.490909,465.793939 C189.155556,497.345455 235.030303,517.591919 285.464646,520.876768 L285.464646,503.731313 C285.464646,495.705051 291.971717,489.19798 299.99798,489.19798 C308.024242,489.19798 314.531313,495.705051 314.531313,503.731313 L314.531313,520.876768 C364.779798,517.60404 410.50303,497.49697 446.111111,466.143434 L434.674747,454.707071 C429,449.030303 429,439.830303 434.674747,434.153535 C440.351515,428.480808 449.551515,428.480808 455.228283,434.153535 L466.634343,445.559596 C497.707071,410.032323 517.620202,364.519192 520.876768,314.533333 L505.517172,314.533333 L505.517172,314.533333 Z M397.694949,314.533333 L300,314.533333 C291.973737,314.533333 285.466667,308.026263 285.466667,300 L285.466667,159.414141 C285.466667,151.387879 291.973737,144.880808 300,144.880808 C308.026263,144.880808 314.533333,151.387879 314.533333,159.414141 L314.533333,285.468687 L397.694949,285.468687 C405.721212,285.468687 412.228283,291.975758 412.228283,300.00202 C412.228283,308.028283 405.721212,314.533333 397.694949,314.533333 Z" id="Shape"></path>
            <path d="M300,0 C134.579798,0 0,134.579798 0,300 C0,465.420202 134.579798,600 300,600 C465.420202,600 600,465.420202 600,300 C600,134.579798 465.420202,0 300,0 Z M300,550.432323 C161.911111,550.432323 49.5676768,438.088889 49.5676768,300 C49.5676768,161.911111 161.911111,49.5676768 300,49.5676768 C438.088889,49.5676768 550.432323,161.911111 550.432323,300 C550.432323,438.088889 438.088889,550.432323 300,550.432323 Z" id="Shape"></path>
        </g>
    </g>
</svg>