<?xml version="1.0" encoding="UTF-8"?>
<svg width="500px" height="500px" viewBox="0 0 500 500" version="1.1" xmlns="http://www.w3.org/2000/svg" xmlns:xlink="http://www.w3.org/1999/xlink">
    <title>clock-face-big-square-light</title>
    <g id="clock-face-big-square-light" stroke="none" stroke-width="1" fill="none" fill-rule="evenodd">
        <path d="M150.949044,471.000199 L151.097241,471.001833 C151.344782,471.013801 151.594232,471.072293 151.833309,471.18187 C152.837435,471.642094 153.278354,472.829184 152.81813,473.833309 L141.81813,497.833309 C141.511314,498.502726 140.881446,498.921829 140.198107,498.990489 L140.050956,498.999801 C139.755412,499.007552 139.453584,498.949622 139.166691,498.81813 C138.162565,498.357906 137.721646,497.170816 138.18187,496.166691 L149.18187,472.166691 C149.510602,471.449458 150.210183,471.019576 150.949044,471.000199 Z M176.102633,472.367544 C176.451929,471.319658 177.584569,470.753338 178.632456,471.102633 C179.680342,471.451929 180.246662,472.584569 179.897367,473.632456 L171.897367,497.632456 C171.548071,498.680342 170.415431,499.246662 169.367544,498.897367 C168.319658,498.548071 167.753338,497.415431 168.102633,496.367544 L176.102633,472.367544 Z M201.042039,472.592091 C201.267321,471.51074 202.326557,470.816758 203.407909,471.042039 C204.48926,471.267321 205.183242,472.326557 204.957961,473.407909 L199.957961,497.407909 C199.732679,498.48926 198.673443,499.183242 197.592091,498.957961 C196.51074,498.732679 195.816758,497.673443 196.042039,496.592091 L201.042039,472.592091 Z M225.015444,472.751931 C225.152449,471.655891 226.15203,470.878439 227.248069,471.015444 C228.344109,471.152449 229.121561,472.15203 228.984556,473.248069 L225.984556,497.248069 C225.847551,498.344109 224.84797,499.121561 223.751931,498.984556 C222.655891,498.847551 221.878439,497.84797 222.015444,496.751931 L225.015444,472.751931 Z M86.4,471.8 C87.0627417,470.916344 88.3163444,470.737258 89.2,471.4 C90.0836556,472.062742 90.2627417,473.316344 89.6,474.2 L71.6,498.2 C70.9372583,499.083656 69.6836556,499.262742 68.8,498.6 C67.9163444,497.937258 67.7372583,496.683656 68.4,495.8 L86.4,471.8 Z M349.051127,471.000199 C349.789987,471.019576 350.489569,471.449458 350.8183,472.166691 L361.8183,496.166691 C362.278524,497.170816 361.837605,498.357906 360.83348,498.81813 C360.546587,498.949622 360.244758,499.007552 359.949214,498.999801 L359.802064,498.990489 C359.118724,498.921829 358.488857,498.502726 358.182041,497.833309 L347.182041,473.833309 C346.721817,472.829184 347.162736,471.642094 348.166861,471.18187 C348.405938,471.072293 348.655388,471.013801 348.902929,471.001833 L349.051127,471.000199 Z M323.897537,472.367544 L331.897537,496.367544 C332.246833,497.415431 331.680513,498.548071 330.632626,498.897367 C329.584739,499.246662 328.452099,498.680342 328.102804,497.632456 L320.102804,473.632456 C319.753508,472.584569 320.319828,471.451929 321.367715,471.102633 C322.415602,470.753338 323.548241,471.319658 323.897537,472.367544 Z M298.958131,472.592091 L303.958131,496.592091 C304.183413,497.673443 303.489431,498.732679 302.408079,498.957961 C301.326727,499.183242 300.267491,498.48926 300.04221,497.407909 L295.04221,473.407909 C294.816928,472.326557 295.51091,471.267321 296.592262,471.042039 C297.673614,470.816758 298.73285,471.51074 298.958131,472.592091 Z M274.984726,472.751931 L277.984726,496.751931 C278.121731,497.84797 277.34428,498.847551 276.24824,498.984556 C275.1522,499.121561 274.15262,498.344109 274.015615,497.248069 L271.015615,473.248069 C270.87861,472.15203 271.656061,471.152449 272.752101,471.015444 C273.848141,470.878439 274.847721,471.655891 274.984726,472.751931 Z M413.60017,471.8 L431.60017,495.8 C432.262912,496.683656 432.083826,497.937258 431.20017,498.6 C430.316515,499.262742 429.062912,499.083656 428.40017,498.2 L410.40017,474.2 C409.737429,473.316344 409.916515,472.062742 410.80017,471.4 C411.683826,470.737258 412.937429,470.916344 413.60017,471.8 Z M47.4761214,471.704703 C48.1914941,470.863088 49.4536819,470.760749 50.2952968,471.476121 C51.1369118,472.191494 51.2392513,473.453682 50.5238786,474.295297 L33.5238786,494.295297 C32.8085059,495.136912 31.5463181,495.239251 30.7047032,494.523879 C29.8630882,493.808506 29.7607487,492.546318 30.4761214,491.704703 L47.4761214,471.704703 Z M452.524049,471.704703 L469.524049,491.704703 C470.239422,492.546318 470.137082,493.808506 469.295467,494.523879 C468.453852,495.239251 467.191664,495.136912 466.476292,494.295297 L449.476292,474.295297 C448.760919,473.453682 448.863259,472.191494 449.704874,471.476121 C450.546488,470.760749 451.808676,470.863088 452.524049,471.704703 Z M471.476207,449.704788 C472.191579,448.863173 473.453767,448.760834 474.295382,449.476207 L494.295382,466.476207 C495.136997,467.191579 495.239337,468.453767 494.523964,469.295382 C493.808591,470.136997 492.546403,470.239337 491.704788,469.523964 L471.704788,452.523964 C470.863173,451.808591 470.760834,450.546403 471.476207,449.704788 Z M28.5239638,449.704788 C29.2393365,450.546403 29.136997,451.808591 28.295382,452.523964 L8.29538204,469.523964 C7.45376711,470.239337 6.19157926,470.136997 5.47620656,469.295382 C4.76083387,468.453767 4.86317343,467.191579 5.70478836,466.476207 L25.7047884,449.476207 C26.5464033,448.760834 27.8085911,448.863173 28.5239638,449.704788 Z M471.400085,410.800085 C472.062827,409.91643 473.31643,409.737343 474.200085,410.400085 L498.200085,428.400085 C499.083741,429.062827 499.262827,430.31643 498.600085,431.200085 C497.937343,432.083741 496.683741,432.262827 495.800085,431.600085 L471.800085,413.600085 C470.91643,412.937343 470.737343,411.683741 471.400085,410.800085 Z M28.6000852,410.800085 C29.2628269,411.683741 29.0837408,412.937343 28.2000852,413.600085 L4.2000852,431.600085 C3.3164296,432.262827 2.0628269,432.083741 1.4000852,431.200085 C0.7373435,430.31643 0.9164296,429.062827 1.8000852,428.400085 L25.8000852,410.400085 C26.6837408,409.737343 27.9373435,409.91643 28.6000852,410.800085 Z M471.181956,348.166776 C471.64218,347.162651 472.829269,346.721731 473.833395,347.181956 L497.833395,358.181956 C498.502811,358.488772 498.921914,359.118639 498.990574,359.801979 L498.999886,359.949129 C499.007637,360.244673 498.949707,360.546502 498.818215,360.833395 C498.357991,361.83752 497.170901,362.278439 496.166776,361.818215 L472.166776,350.818215 C471.449543,350.489483 471.019661,349.789902 471.000284,349.051042 L471.001918,348.902844 C471.013886,348.655303 471.072378,348.405853 471.181956,348.166776 Z M28.8182148,348.166776 C28.927792,348.405853 28.986284,348.655303 28.998252,348.902844 L28.9998864,349.051042 C28.9805092,349.789902 28.550627,350.489483 27.8333946,350.818215 L3.83339462,361.818215 C2.82926934,362.278439 1.64217964,361.83752 1.18195555,360.833395 C1.05046296,360.546502 0.992533066,360.244673 1.00028397,359.949129 L1.00959633,359.801979 C1.07825596,359.118639 1.49735893,358.488772 2.16677578,358.181956 L26.1667758,347.181956 C27.1709011,346.721731 28.3579908,347.162651 28.8182148,348.166776 Z M471.102719,321.36763 C471.452014,320.319743 472.584654,319.753423 473.632541,320.102719 L497.632541,328.102719 C498.680427,328.452014 499.246747,329.584654 498.897452,330.632541 C498.548156,331.680427 497.415516,332.246747 496.36763,331.897452 L472.36763,323.897452 C471.319743,323.548156 470.753423,322.415516 471.102719,321.36763 Z M28.8974518,321.36763 C29.2467473,322.415516 28.6804274,323.548156 27.6325407,323.897452 L3.63254073,331.897452 C2.5846541,332.246747 1.45201415,331.680427 1.1027186,330.632541 C0.753423058,329.584654 1.31974303,328.452014 2.36762967,328.102719 L26.3676297,320.102719 C27.4155163,319.753423 28.5481563,320.319743 28.8974518,321.36763 Z M471.042124,296.592177 C471.267406,295.510825 472.326642,294.816843 473.407994,295.042124 L497.407994,300.042124 C498.489346,300.267406 499.183328,301.326642 498.958046,302.407994 C498.732764,303.489346 497.673529,304.183328 496.592177,303.958046 L472.592177,298.958046 C471.510825,298.732764 470.816843,297.673529 471.042124,296.592177 Z M28.958046,296.592177 C29.1833277,297.673529 28.4893456,298.732764 27.4079937,298.958046 L3.40799371,303.958046 C2.3266418,304.183328 1.26740601,303.489346 1.04212436,302.407994 C0.816842712,301.326642 1.51082478,300.267406 2.59217669,300.042124 L26.5921767,295.042124 C27.6735286,294.816843 28.7327644,295.510825 28.958046,296.592177 Z M28.984641,272.752016 C29.1216459,273.848056 28.3441945,274.847636 27.2481547,274.984641 L3.24815467,277.984641 C2.15211479,278.121646 1.15253443,277.344195 1.01552945,276.248155 C0.878524461,275.152115 1.65597585,274.152534 2.75201573,274.015529 L26.7520157,271.015529 C27.8480556,270.878524 28.847636,271.655976 28.984641,272.752016 Z M471.015529,272.752016 C471.152534,271.655976 472.152115,270.878524 473.248155,271.015529 L497.248155,274.015529 C498.344195,274.152534 499.121646,275.152115 498.984641,276.248155 C498.847636,277.344195 497.848056,278.121646 496.752016,277.984641 L472.752016,274.984641 C471.655976,274.847636 470.878524,273.848056 471.015529,272.752016 Z M1.01552945,223.751845 C1.15253443,222.655805 2.15211479,221.878354 3.24815467,222.015359 L27.2481547,225.015359 C28.3441945,225.152364 29.1216459,226.151944 28.984641,227.247984 C28.847636,228.344024 27.8480556,229.121476 26.7520157,228.984471 L2.75201573,225.984471 C1.65597585,225.847466 0.878524461,224.847885 1.01552945,223.751845 Z M498.984641,223.751845 C499.121646,224.847885 498.344195,225.847466 497.248155,225.984471 L473.248155,228.984471 C472.152115,229.121476 471.152534,228.344024 471.015529,227.247984 C470.878524,226.151944 471.655976,225.152364 472.752016,225.015359 L496.752016,222.015359 C497.848056,221.878354 498.847636,222.655805 498.984641,223.751845 Z M1.04212436,197.592006 C1.26740601,196.510654 2.3266418,195.816672 3.40799371,196.041954 L27.4079937,201.041954 C28.4893456,201.267236 29.1833277,202.326471 28.958046,203.407823 C28.7327644,204.489175 27.6735286,205.183157 26.5921767,204.957876 L2.59217669,199.957876 C1.51082478,199.732594 0.816842712,198.673358 1.04212436,197.592006 Z M498.958046,197.592006 C499.183328,198.673358 498.489346,199.732594 497.407994,199.957876 L473.407994,204.957876 C472.326642,205.183157 471.267406,204.489175 471.042124,203.407823 C470.816843,202.326471 471.510825,201.267236 472.592177,201.041954 L496.592177,196.041954 C497.673529,195.816672 498.732764,196.510654 498.958046,197.592006 Z M1.1027186,169.367459 C1.45201415,168.319573 2.5846541,167.753253 3.63254073,168.102548 L27.6325407,176.102548 C28.6804274,176.451844 29.2467473,177.584484 28.8974518,178.63237 C28.5481563,179.680257 27.4155163,180.246577 26.3676297,179.897281 L2.36762967,171.897281 C1.31974303,171.547986 0.753423058,170.415346 1.1027186,169.367459 Z M498.897452,169.367459 C499.246747,170.415346 498.680427,171.547986 497.632541,171.897281 L473.632541,179.897281 C472.584654,180.246577 471.452014,179.680257 471.102719,178.63237 C470.753423,177.584484 471.319743,176.451844 472.36763,176.102548 L496.36763,168.102548 C497.415516,167.753253 498.548156,168.319573 498.897452,169.367459 Z M1.18195555,139.166605 C1.64217964,138.16248 2.82926934,137.721561 3.83339462,138.181785 L27.8333946,149.181785 C28.550627,149.510517 28.9805092,150.210098 28.9998864,150.948958 L28.998252,151.097156 C28.986284,151.344697 28.927792,151.594147 28.8182148,151.833224 C28.3579908,152.837349 27.1709011,153.278269 26.1667758,152.818044 L2.16677578,141.818044 C1.49735893,141.511228 1.07825596,140.881361 1.00959633,140.198021 L1.00028397,140.050871 C0.992533066,139.755327 1.05046296,139.453498 1.18195555,139.166605 Z M498.818215,139.166605 C498.949707,139.453498 499.007637,139.755327 498.999886,140.050871 L498.990574,140.198021 C498.921914,140.881361 498.502811,141.511228 497.833395,141.818044 L473.833395,152.818044 C472.829269,153.278269 471.64218,152.837349 471.181956,151.833224 C471.072378,151.594147 471.013886,151.344697 471.001918,151.097156 L471.000284,150.948958 C471.019661,150.210098 471.449543,149.510517 472.166776,149.181785 L496.166776,138.181785 C497.170901,137.721561 498.357991,138.16248 498.818215,139.166605 Z M1.4000852,68.7999148 C2.0628269,67.9162592 3.3164296,67.7371731 4.2000852,68.3999148 L28.2000852,86.3999148 C29.0837408,87.0626565 29.2628269,88.3162592 28.6000852,89.1999148 C27.9373435,90.0835704 26.6837408,90.2626565 25.8000852,89.5999148 L1.8000852,71.5999148 C0.9164296,70.9371731 0.7373435,69.6835704 1.4000852,68.7999148 Z M498.600085,68.7999148 C499.262827,69.6835704 499.083741,70.9371731 498.200085,71.5999148 L474.200085,89.5999148 C473.31643,90.2626565 472.062827,90.0835704 471.400085,89.1999148 C470.737343,88.3162592 470.91643,87.0626565 471.800085,86.3999148 L495.800085,68.3999148 C496.683741,67.7371731 497.937343,67.9162592 498.600085,68.7999148 Z M5.47620656,30.704618 C6.19157926,29.863003 7.45376711,29.7606635 8.29538204,30.4760362 L28.295382,47.4760362 C29.136997,48.1914089 29.2393365,49.4535967 28.5239638,50.2952116 C27.8085911,51.1368266 26.5464033,51.2391661 25.7047884,50.5237934 L5.70478836,33.5237934 C4.86317343,32.8084207 4.76083387,31.5462329 5.47620656,30.704618 Z M494.523964,30.704618 C495.239337,31.5462329 495.136997,32.8084207 494.295382,33.5237934 L474.295382,50.5237934 C473.453767,51.2391661 472.191579,51.1368266 471.476207,50.2952116 C470.760834,49.4535967 470.863173,48.1914089 471.704788,47.4760362 L491.704788,30.4760362 C492.546403,29.7606635 493.808591,29.863003 494.523964,30.704618 Z M140.050956,1.00019877 L140.198107,1.00951113 C140.881446,1.07817076 141.511314,1.49727373 141.81813,2.16669058 L152.81813,26.1666906 C153.278354,27.1708159 152.837435,28.3579056 151.833309,28.8181296 C151.594232,28.9277068 151.344782,28.9861988 151.097241,28.9981668 L150.949044,28.9998012 C150.210183,28.980424 149.510602,28.5505418 149.18187,27.8333094 L138.18187,3.83330942 C137.721646,2.82918414 138.162565,1.64209444 139.166691,1.18187035 C139.453584,1.05037776 139.755412,0.992447866 140.050956,1.00019877 Z M466.476292,5.70470316 C467.191664,4.86308823 468.453852,4.76074867 469.295467,5.47612136 C470.137082,6.19149406 470.239422,7.45368191 469.524049,8.29529684 L452.524049,28.2952968 C451.808676,29.1369118 450.546488,29.2392513 449.704874,28.5238786 C448.863259,27.8085059 448.760919,26.5463181 449.476292,25.7047032 L466.476292,5.70470316 Z M428.40017,1.8 C429.062912,0.9163444 430.316515,0.7372583 431.20017,1.4 C432.083826,2.0627417 432.262912,3.3163444 431.60017,4.2 L413.60017,28.2 C412.937429,29.0836556 411.683826,29.2627417 410.80017,28.6 C409.916515,27.9372583 409.737429,26.6836556 410.40017,25.8 L428.40017,1.8 Z M274.015615,2.75193053 C274.15262,1.65589065 275.1522,0.878439262 276.24824,1.01544425 C277.34428,1.15244923 278.121731,2.15202959 277.984726,3.24806947 L274.984726,27.2480695 C274.847721,28.3441093 273.848141,29.1215607 272.752101,28.9845558 C271.656061,28.8475508 270.87861,27.8479704 271.015615,26.7519305 L274.015615,2.75193053 Z M300.04221,2.59209149 C300.267491,1.51073958 301.326727,0.816757512 302.408079,1.04203916 C303.489431,1.26732081 304.183413,2.3265566 303.958131,3.40790851 L298.958131,27.4079085 C298.73285,28.4892604 297.673614,29.1832425 296.592262,28.9579608 C295.51091,28.7326792 294.816928,27.6734434 295.04221,26.5920915 L300.04221,2.59209149 Z M328.102804,2.36754447 C328.452099,1.31965783 329.584739,0.753337859 330.632626,1.1026334 C331.680513,1.45192895 332.246833,2.5845689 331.897537,3.63245553 L323.897537,27.6324555 C323.548241,28.6803422 322.415602,29.2466621 321.367715,28.8973666 C320.319828,28.5480711 319.753508,27.4154311 320.102804,26.3675445 L328.102804,2.36754447 Z M359.949214,1.00019877 C360.244758,0.992447866 360.546587,1.05037776 360.83348,1.18187035 C361.837605,1.64209444 362.278524,2.82918414 361.8183,3.83330942 L350.8183,27.8333094 C350.489569,28.5505418 349.789987,28.980424 349.051127,28.9998012 L348.902929,28.9981668 C348.655388,28.9861988 348.405938,28.9277068 348.166861,28.8181296 C347.162736,28.3579056 346.721817,27.1708159 347.182041,26.1666906 L358.182041,2.16669058 C358.488857,1.49727373 359.118724,1.07817076 359.802064,1.00951113 L359.949214,1.00019877 Z M33.5238786,5.70470316 L50.5238786,25.7047032 C51.2392513,26.5463181 51.1369118,27.8085059 50.2952968,28.5238786 C49.4536819,29.2392513 48.1914941,29.1369118 47.4761214,28.2952968 L30.4761214,8.29529684 C29.7607487,7.45368191 29.8630882,6.19149406 30.7047032,5.47612136 C31.5463181,4.76074867 32.8085059,4.86308823 33.5238786,5.70470316 Z M71.6,1.8 L89.6,25.8 C90.2627417,26.6836556 90.0836556,27.9372583 89.2,28.6 C88.3163444,29.2627417 87.0627417,29.0836556 86.4,28.2 L68.4,4.2 C67.7372583,3.3163444 67.9163444,2.0627417 68.8,1.4 C69.6836556,0.7372583 70.9372583,0.9163444 71.6,1.8 Z M225.984556,2.75193053 L228.984556,26.7519305 C229.121561,27.8479704 228.344109,28.8475508 227.248069,28.9845558 C226.15203,29.1215607 225.152449,28.3441093 225.015444,27.2480695 L222.015444,3.24806947 C221.878439,2.15202959 222.655891,1.15244923 223.751931,1.01544425 C224.84797,0.878439262 225.847551,1.65589065 225.984556,2.75193053 Z M199.957961,2.59209149 L204.957961,26.5920915 C205.183242,27.6734434 204.48926,28.7326792 203.407909,28.9579608 C202.326557,29.1832425 201.267321,28.4892604 201.042039,27.4079085 L196.042039,3.40790851 C195.816758,2.3265566 196.51074,1.26732081 197.592091,1.04203916 C198.673443,0.816757512 199.732679,1.51073958 199.957961,2.59209149 Z M171.897367,2.36754447 L179.897367,26.3675445 C180.246662,27.4154311 179.680342,28.5480711 178.632456,28.8973666 C177.584569,29.2466621 176.451929,28.6803422 176.102633,27.6324555 L168.102633,3.63245553 C167.753338,2.5845689 168.319658,1.45192895 169.367544,1.1026334 C170.415431,0.753337859 171.548071,1.31965783 171.897367,2.36754447 Z" id="Shape" fill="#AAAAAE" fill-rule="nonzero"></path>
        <path d="M250,446 C251.656854,446 253,447.343146 253,449 L253,497 C253,498.656854 251.656854,500 250,500 C248.343146,500 247,498.656854 247,497 L247,449 C247,447.343146 248.343146,446 250,446 Z M352.098076,420.839055 L394.598076,494.451215 C395.426503,495.886093 394.934878,497.720864 393.5,498.549291 C392.065122,499.377718 390.230351,498.886093 389.401924,497.451215 L346.901924,423.839055 C346.073497,422.404177 346.565122,420.569406 348,419.740979 C349.434878,418.912552 351.269649,419.404177 352.098076,420.839055 Z M152,419.740979 C153.434878,420.569406 153.926503,422.404177 153.098076,423.839055 L110.598076,497.451215 C109.769649,498.886093 107.934878,499.377718 106.5,498.549291 C105.065122,497.720864 104.573497,495.886093 105.401924,494.451215 L147.901924,420.839055 C148.730351,419.404177 150.565122,418.912552 152,419.740979 Z M80.2590209,348 C81.087448,349.434878 80.5958225,351.269649 79.1609446,352.098076 L5.54878533,394.598076 C4.11390745,395.426503 2.27913624,394.934878 1.45070911,393.5 C0.622281989,392.065122 1.11390745,390.230351 2.54878533,389.401924 L76.1609446,346.901924 C77.5958225,346.073497 79.4305937,346.565122 80.2590209,348 Z M423.839055,346.901924 L497.451215,389.401924 C498.886093,390.230351 499.377718,392.065122 498.549291,393.5 C497.720864,394.934878 495.886093,395.426503 494.451215,394.598076 L420.839055,352.098076 C419.404177,351.269649 418.912552,349.434878 419.740979,348 C420.569406,346.565122 422.404177,346.073497 423.839055,346.901924 Z M497,247 C498.656854,247 500,248.343146 500,250 C500,251.656854 498.656854,253 497,253 L449,253 C447.343146,253 446,251.656854 446,250 C446,248.343146 447.343146,247 449,247 L497,247 Z M51,247 C52.6568542,247 54,248.343146 54,250 C54,251.656854 52.6568542,253 51,253 L3,253 C1.34314575,253 0,251.656854 0,250 C0,248.343146 1.34314575,247 3,247 L51,247 Z M498.549291,106.5 C499.377718,107.934878 498.886093,109.769649 497.451215,110.598076 L423.839055,153.098076 C422.404177,153.926503 420.569406,153.434878 419.740979,152 C418.912552,150.565122 419.404177,148.730351 420.839055,147.901924 L494.451215,105.401924 C495.886093,104.573497 497.720864,105.065122 498.549291,106.5 Z M5.54878533,105.401924 L79.1609446,147.901924 C80.5958225,148.730351 81.087448,150.565122 80.2590209,152 C79.4305937,153.434878 77.5958225,153.926503 76.1609446,153.098076 L2.54878533,110.598076 C1.11390745,109.769649 0.622281989,107.934878 1.45070911,106.5 C2.27913624,105.065122 4.11390745,104.573497 5.54878533,105.401924 Z M110.598076,2.54878533 L153.098076,76.1609446 C153.926503,77.5958225 153.434878,79.4305937 152,80.2590209 C150.565122,81.087448 148.730351,80.5958225 147.901924,79.1609446 L105.401924,5.54878533 C104.573497,4.11390745 105.065122,2.27913624 106.5,1.45070911 C107.934878,0.622281989 109.769649,1.11390745 110.598076,2.54878533 Z M393.5,1.45070911 C394.934878,2.27913624 395.426503,4.11390745 394.598076,5.54878533 L352.098076,79.1609446 C351.269649,80.5958225 349.434878,81.087448 348,80.2590209 C346.565122,79.4305937 346.073497,77.5958225 346.901924,76.1609446 L389.401924,2.54878533 C390.230351,1.11390745 392.065122,0.622281989 393.5,1.45070911 Z M250,0 C251.656854,0 253,1.34314575 253,3 L253,51 C253,52.6568542 251.656854,54 250,54 C248.343146,54 247,52.6568542 247,51 L247,3 C247,1.34314575 248.343146,0 250,0 Z" id="Shape" fill="#1C1C1C"></path>
        <path d="M261.054688,368.851562 L261.054688,376.703125 L259.882812,376.703125 C254.570312,376.78125 250.325521,378.239583 247.148438,381.078125 C243.971354,383.916667 242.083333,387.940104 241.484375,393.148438 C244.53125,389.945312 248.424479,388.34375 253.164062,388.34375 C258.190104,388.34375 262.154948,390.114583 265.058594,393.65625 C267.96224,397.197917 269.414062,401.768229 269.414062,407.367188 C269.414062,413.148438 267.714844,417.829427 264.316406,421.410156 C260.917969,424.990885 256.458333,426.78125 250.9375,426.78125 C245.260417,426.78125 240.657552,424.684896 237.128906,420.492188 C233.60026,416.299479 231.835938,410.804688 231.835938,404.007812 L231.835938,400.765625 C231.835938,390.791667 234.264323,382.979167 239.121094,377.328125 C243.977865,371.677083 250.963542,368.851562 260.078125,368.851562 L261.054688,368.851562 Z M250.859375,396 C248.776042,396 246.86849,396.585938 245.136719,397.757812 C243.404948,398.929688 242.135417,400.492188 241.328125,402.445312 L241.328125,405.335938 C241.328125,409.554688 242.213542,412.907552 243.984375,415.394531 C245.755208,417.88151 248.046875,419.125 250.859375,419.125 C253.671875,419.125 255.898438,418.070312 257.539062,415.960938 C259.179688,413.851562 260,411.078125 260,407.640625 C260,404.203125 259.166667,401.403646 257.5,399.242188 C255.833333,397.080729 253.619792,396 250.859375,396 Z M234.492188,128 L225.039062,128 L225.039062,82.3359375 L211.09375,87.1015625 L211.09375,79.09375 L233.28125,70.9296875 L234.492188,70.9296875 L234.492188,128 Z M292.5,128 L254.257812,128 L254.257812,121.476563 L273.203125,100.8125 C275.9375,97.765625 277.884115,95.2200521 279.042969,93.1757812 C280.201823,91.1315104 280.78125,89.0807292 280.78125,87.0234375 C280.78125,84.3151042 280.019531,82.1276042 278.496094,80.4609375 C276.972656,78.7942708 274.921875,77.9609375 272.34375,77.9609375 C269.270833,77.9609375 266.888021,78.8984375 265.195312,80.7734375 C263.502604,82.6484375 262.65625,85.2135417 262.65625,88.46875 L253.164062,88.46875 C253.164062,85.0052083 253.951823,81.8867187 255.527344,79.1132812 C257.102865,76.3398438 259.355469,74.1848958 262.285156,72.6484375 C265.214844,71.1119792 268.59375,70.34375 272.421875,70.34375 C277.942708,70.34375 282.298177,71.7304688 285.488281,74.5039062 C288.678385,77.2773438 290.273438,81.1119792 290.273438,86.0078125 C290.273438,88.8463542 289.472656,91.8216146 287.871094,94.9335938 C286.269531,98.0455729 283.645833,101.580729 280,105.539062 L266.09375,120.421875 L292.5,120.421875 L292.5,128 Z M101.4375,253.210938 C98.2604167,256.570312 94.5494792,258.25 90.3046875,258.25 C85.3046875,258.25 81.3203125,256.498698 78.3515625,252.996094 C75.3828125,249.49349 73.8984375,244.890625 73.8984375,239.1875 C73.8984375,235.4375 74.6536458,232.039062 76.1640625,228.992188 C77.6744792,225.945312 79.8229167,223.575521 82.609375,221.882812 C85.3958333,220.190104 88.625,219.34375 92.296875,219.34375 C98.0260417,219.34375 102.570312,221.479167 105.929688,225.75 C109.289063,230.020833 110.96875,235.736979 110.96875,242.898437 L110.96875,245.554688 C110.96875,255.815104 108.651042,263.640625 104.015625,269.03125 C99.3802083,274.421875 92.4661458,277.15625 83.2734375,277.234375 L82.140625,277.234375 L82.140625,269.382812 L83.5078125,269.382812 C89.1067708,269.304688 93.4036458,267.957031 96.3984375,265.339844 C99.3932292,262.722656 101.072917,258.679688 101.4375,253.210938 Z M92.296875,250.828125 C94.1979167,250.828125 95.9817708,250.28125 97.6484375,249.1875 C99.3151042,248.09375 100.604167,246.583333 101.515625,244.65625 L101.515625,240.945312 C101.515625,236.752604 100.65625,233.380208 98.9375,230.828125 C97.21875,228.276042 94.9921875,227 92.2578125,227 C89.5234375,227 87.3424479,228.126302 85.7148438,230.378906 C84.0872396,232.63151 83.2734375,235.476562 83.2734375,238.914062 C83.2734375,242.481771 84.09375,245.359375 85.734375,247.546875 C87.375,249.734375 89.5625,250.828125 92.296875,250.828125 Z M399.5,244.226562 L405.28125,244.226562 C408.197917,244.200521 410.509115,243.445312 412.214844,241.960937 C413.920573,240.476562 414.773438,238.328125 414.773438,235.515625 C414.773438,232.807292 414.063802,230.704427 412.644531,229.207031 C411.22526,227.709635 409.057292,226.960938 406.140625,226.960938 C403.588542,226.960938 401.492188,227.696615 399.851562,229.167969 C398.210938,230.639323 397.390625,232.559896 397.390625,234.929688 L387.898438,234.929688 C387.898438,232.013021 388.673177,229.356771 390.222656,226.960938 C391.772135,224.565104 393.933594,222.696615 396.707031,221.355469 C399.480469,220.014323 402.585938,219.34375 406.023438,219.34375 C411.700521,219.34375 416.160156,220.769531 419.402344,223.621094 C422.644531,226.472656 424.265625,230.4375 424.265625,235.515625 C424.265625,238.067708 423.451823,240.470052 421.824219,242.722656 C420.196615,244.97526 418.09375,246.674479 415.515625,247.820313 C418.640625,248.888021 421.016927,250.567708 422.644531,252.859375 C424.272135,255.151042 425.085938,257.885417 425.085938,261.0625 C425.085938,266.166667 423.334635,270.229167 419.832031,273.25 C416.329427,276.270833 411.726562,277.78125 406.023438,277.78125 C400.554688,277.78125 396.075521,276.322917 392.585938,273.40625 C389.096354,270.489583 387.351562,266.609375 387.351562,261.765625 L396.84375,261.765625 C396.84375,264.265625 397.683594,266.296875 399.363281,267.859375 C401.042969,269.421875 403.302083,270.203125 406.140625,270.203125 C409.083333,270.203125 411.401042,269.421875 413.09375,267.859375 C414.786458,266.296875 415.632812,264.03125 415.632812,261.0625 C415.632812,258.067708 414.747396,255.763021 412.976562,254.148438 C411.205729,252.533854 408.575521,251.726562 405.085938,251.726562 L399.5,251.726562 L399.5,244.226562 Z" id="numbers" fill="#1C1C1C" fill-rule="nonzero"></path>
    </g>
</svg>