<?xml version="1.0" encoding="UTF-8"?>
<svg width="50px" height="500px" viewBox="0 0 50 500" version="1.1" xmlns="http://www.w3.org/2000/svg" xmlns:xlink="http://www.w3.org/1999/xlink">
    <title>hour-hand-big-black</title>
    <g id="Page-1" stroke="none" stroke-width="1" fill="none" fill-rule="evenodd">
        <g id="clock-face-big-light" transform="translate(-225, 0)" fill="#000000">
            <path d="M250,118 C254.970563,118 259,122.029437 259,127 L259,209 C259,212.533287 256.963938,215.591026 254.001093,217.063937 L254.000413,240.832268 C257.532002,242.375475 260,245.899522 260,250 C260,255.522847 255.522847,260 250,260 C244.477153,260 240,255.522847 240,250 C240,245.899133 242.468466,242.374808 246.000591,240.831829 L245.999908,217.064435 C243.036521,215.591715 241,212.533685 241,209 L241,127 C241,122.029437 245.029437,118 250,118 Z M250,244 C246.686292,244 244,246.686292 244,250 C244,253.313708 246.686292,256 250,256 C253.313708,256 256,253.313708 256,250 C256,246.686292 253.313708,244 250,244 Z" id="Shape"></path>
        </g>
    </g>
</svg>