<?xml version="1.0" encoding="UTF-8"?>
<svg width="249px" height="249px" viewBox="0 0 249 249" version="1.1" xmlns="http://www.w3.org/2000/svg" xmlns:xlink="http://www.w3.org/1999/xlink">
    <title>clock-face-simple-light</title>
    <g id="clock-face-simple-light" stroke="none" stroke-width="1" fill="none" fill-rule="evenodd">
        <path d="M124.5,0 C193.259451,0 249,55.7405486 249,124.5 C249,193.259451 193.259451,249 124.5,249 C55.7405486,249 0,193.259451 0,124.5 C0,55.7405486 55.7405486,0 124.5,0 Z M124.5,21 C67.3385284,21 21,67.3385284 21,124.5 C21,181.661472 67.3385284,228 124.5,228 C181.661472,228 228,181.661472 228,124.5 C228,67.3385284 181.661472,21 124.5,21 Z" id="Shape" fill="#EDEDED"></path>
        <path d="M124.5,5 C125.880712,5 127,6.11928813 127,7.5 L127,25.5 C127,26.8807119 125.880712,28 124.5,28 C123.119288,28 122,26.8807119 122,25.5 L122,7.5 C122,6.11928813 123.119288,5 124.5,5 Z M184.25,21.0099642 C185.445732,21.7003202 185.855419,23.2292962 185.165064,24.4250278 L176.165064,40.013485 C175.474708,41.2092166 173.945732,41.6189045 172.75,40.9285485 C171.554268,40.2381926 171.144581,38.7092166 171.834936,37.513485 L180.834936,21.9250278 C181.525292,20.7292962 183.054268,20.3196083 184.25,21.0099642 Z M227.990036,64.75 C228.680392,65.9457316 228.270704,67.4747076 227.074972,68.1650635 L211.486515,77.1650635 C210.290783,77.8554194 208.761807,77.4457316 208.071451,76.25 C207.381096,75.0542684 207.790783,73.5252924 208.986515,72.8349365 L224.574972,63.8349365 C225.770704,63.1445806 227.29968,63.5542684 227.990036,64.75 Z M244,124.5 C244,125.880712 242.880712,127 241.5,127 L223.5,127 C222.119288,127 221,125.880712 221,124.5 C221,123.119288 222.119288,122 223.5,122 L241.5,122 C242.880712,122 244,123.119288 244,124.5 Z M227.990036,184.25 C227.29968,185.445732 225.770704,185.855419 224.574972,185.165064 L208.986515,176.165064 C207.790783,175.474708 207.381096,173.945732 208.071451,172.75 C208.761807,171.554268 210.290783,171.144581 211.486515,171.834936 L227.074972,180.834936 C228.270704,181.525292 228.680392,183.054268 227.990036,184.25 Z M184.25,227.990036 C183.054268,228.680392 181.525292,228.270704 180.834936,227.074972 L171.834936,211.486515 C171.144581,210.290783 171.554268,208.761807 172.75,208.071451 C173.945732,207.381096 175.474708,207.790783 176.165064,208.986515 L185.165064,224.574972 C185.855419,225.770704 185.445732,227.29968 184.25,227.990036 Z M124.5,244 C123.119288,244 122,242.880712 122,241.5 L122,223.5 C122,222.119288 123.119288,221 124.5,221 C125.880712,221 127,222.119288 127,223.5 L127,241.5 C127,242.880712 125.880712,244 124.5,244 Z M64.75,227.990036 C63.5542684,227.29968 63.1445806,225.770704 63.8349365,224.574972 L72.8349365,208.986515 C73.5252924,207.790783 75.0542684,207.381096 76.25,208.071451 C77.4457316,208.761807 77.8554194,210.290783 77.1650635,211.486515 L68.1650635,227.074972 C67.4747076,228.270704 65.9457316,228.680392 64.75,227.990036 Z M21.0099642,184.25 C20.3196083,183.054268 20.7292962,181.525292 21.9250278,180.834936 L37.513485,171.834936 C38.7092166,171.144581 40.2381926,171.554268 40.9285485,172.75 C41.6189045,173.945732 41.2092166,175.474708 40.013485,176.165064 L24.4250278,185.165064 C23.2292962,185.855419 21.7003202,185.445732 21.0099642,184.25 Z M5,124.5 C5,123.119288 6.11928813,122 7.5,122 L25.5,122 C26.8807119,122 28,123.119288 28,124.5 C28,125.880712 26.8807119,127 25.5,127 L7.5,127 C6.11928813,127 5,125.880712 5,124.5 Z M21.0099642,64.75 C21.7003202,63.5542684 23.2292962,63.1445806 24.4250278,63.8349365 L40.013485,72.8349365 C41.2092166,73.5252924 41.6189045,75.0542684 40.9285485,76.25 C40.2381926,77.4457316 38.7092166,77.8554194 37.513485,77.1650635 L21.9250278,68.1650635 C20.7292962,67.4747076 20.3196083,65.9457316 21.0099642,64.75 Z M64.75,21.0099642 C65.9457316,20.3196083 67.4747076,20.7292962 68.1650635,21.9250278 L77.1650635,37.513485 C77.8554194,38.7092166 77.4457316,40.2381926 76.25,40.9285485 C75.0542684,41.6189045 73.5252924,41.2092166 72.8349365,40.013485 L63.8349365,24.4250278 C63.1733454,23.2791183 63.5220376,21.8271563 64.6046502,21.1005418 L64.75,21.0099642 Z" id="Shape" fill="#89898A"></path>
    </g>
</svg>