<?xml version="1.0" encoding="UTF-8"?>
<svg width="63px" height="249px" viewBox="0 0 63 249" version="1.1" xmlns="http://www.w3.org/2000/svg" xmlns:xlink="http://www.w3.org/1999/xlink">
    <title>sec-hand</title>
    <g id="sec-hand" stroke="none" stroke-width="1" fill="none" fill-rule="evenodd">
        <path d="M31.5,8 C32.8807119,8 34,9.11928813 34,10.5 L34.0006801,113.272655 C39.1495257,114.414375 43,119.007524 43,124.5 C43,129.992476 39.1495257,134.585625 34.0006801,135.727345 L34,148.5 C34,149.880712 32.8807119,151 31.5,151 C30.1192881,151 29,149.880712 29,148.5 L29.0003191,135.727566 C23.8509725,134.586219 20,129.992831 20,124.5 C20,119.007169 23.8509725,114.413781 29.0003191,113.272434 L29,10.5 C29,9.11928813 30.1192881,8 31.5,8 Z M31.5,121 C29.5670034,121 28,122.567003 28,124.5 C28,126.432997 29.5670034,128 31.5,128 C33.4329966,128 35,126.432997 35,124.5 C35,122.567003 33.4329966,121 31.5,121 Z" id="Combined-Shape" fill="#000000"></path>
    </g>
</svg>